<?xml version="1.0" encoding="UTF-8"?>
<svg version="1.1" viewBox="0 0 2048 834" width="540" height="220" xmlns="http://www.w3.org/2000/svg">
<path transform="translate(0)" d="m0 0h2048v834h-2048z" fill="#F7F2EA"/>
<path transform="translate(718,146)" d="m0 0h37l1 126h55l8 16 11 24 9 20 13 29 5 11 8-16 34-76 3-7h121l1 145 3-3 10-18 9-15 8-14 4 1 12 9 18 10 18 8 11 3 6 1h14l11-2 10-4 6-4 5-8 2-8-1-10-6-9-13-9-16-9-26-12-20-11-13-10-11-11-9-13-6-14-3-16 1-15 2-13 6-16 9-14 15-15 13-9 16-8 15-4 17-2 23 1 25 5 21 7 17 8 10 7-1 5-10 19-15 30-5-1-10-6-15-6-13-4-13-2h-11l-11 2-10 5-6 8-2 6v9l5 9 11 8 27 14 23 10 23 13 13 11 10 9 9 11 3 6 2 1-1-11v-55l64-1 1 13 1 92 3 15 5 8 8 7 9 3 14 1 13-3 9-6 6-9 3-13 1-10 1-97 45-1 19 1v108l-1 16-5 20-7 14-9 10-7 6-12 7-18 6-20 3-24 1-20-1-23-4-17-6-15-10-7-7-7-11-5-13-3-12-5 12-6 11-8 10-12 10-18 10-18 6-22 4-23 1-17-1-19-3-18-5-15-6-23-12-13-9h-1l-1 30-2 1h-61l-1-1v-147l-2 1-18 36-13 23-8 16-14 26-13 24-11 21h-44l-4-5-12-23-9-16-7-14-12-22-17-32-13-24-5-10-2-1v147l-1 1h-43l-19-1-1-20-10 9-14 9-14 5-8 2-17 1-19-2-18-6-15-9-9-8 3 9 3 10-9 1h-61l-3-1-17-46-4-11v-2h-114l-11 29-10 27-2 3-14 1h-44l-14-1 1-5 42-104 15-37 50-124 11-27 1-1h63l6 13 11 28 13 32 17 42 20 50 11 27 6 15 4-29 5-15 7-13 10-13 10-10 10-7 16-8 17-4 17-1 18 2 13 4 16 8 10 8 1-142z"/>
<path transform="translate(1681,267)" d="m0 0 20 1 18 4 12 5 12 6 10 8 10 10 9 14 5 12 4 15 2 21v11l-135 1 1 9 4 10 4 6 8 6 8 4 11 2h11l12-2 9-4 9-6 7-7 5 1 16 8 25 12 1 3-8 11-14 14-11 7-14 7-17 5-12 2h-34l-15-3-12-4-15-8-13-10-10-10-9-12-8-16-4-13-2-14v-14l3-18 4-11 7-14 7-10 11-12 13-10 14-8 14-5 14-3z"/>
<path transform="translate(1565,267)" d="m0 0 16 1 16 4 12 6 1 2-8 16-11 23-7 14-16-7-12-2h-13l-10 3-10 7-6 10-4 13-1 101-6 1h-57l-1-1v-185h64l1 25 12-13 14-10 11-5z"/>
<path transform="translate(642,322)" d="m0 0h14l12 3 10 7 7 7 6 12 2 10v10l-3 12-6 11-7 7-9 5-10 3h-19l-10-3-8-6-8-9-4-8-3-12v-12l3-12 6-10 9-8 12-6z" fill="#F7F2EA"/>
<path transform="translate(988,158)" d="m0 0h8l9 2 12 7 8 10 4 10 1 10-2 12-7 11-9 8-9 4-4 1h-13l-10-3-9-6-7-8-5-12v-16l5-12 9-10 10-6z"/>
<path transform="translate(421,252)" d="m0 0 3 3 9 25 19 49 3 7v3h-67l1-5 21-55 10-26z" fill="#F7F2EA"/>
<path transform="translate(1679,309)" d="m0 0h11l9 2 9 5 8 9 4 11v3h-70v-7l5-10 7-7 11-5z" fill="#F7F2EA"/>
<path transform="translate(919,508)" d="m0 0 5 2 1 17 9-4 8 1 5 3 4 5 2 6v10l-4 8-6 5-3 1h-8l-6-3-4 2-4 1-1-3v-46z"/>
<path transform="translate(1301,508)" d="m0 0h3l1 2 1 23v13l-1 15-5-1-4-1-6 3h-8l-7-4-5-8-1-10 3-9 7-6 5-2 8 1 7 3v-16z"/>
<path transform="translate(666,523)" d="m0 0 8 1 3 2 4-1 4-2 2 6v23l-1 9-5-1-4-1-5 3h-9l-8-5-4-8v-13l3-6 6-5z"/>
<path transform="translate(848,624)" d="m0 0 8 1 7 3 1-3 3-1 2 3v31l-1 4-5-1v-2l-10 4-9-1-6-4-4-6-1-3v-10l3-8 6-5z"/>
<path transform="translate(1114,523)" d="m0 0 8 1 7 3 1-3 3-1 2 2 1 17-1 19-3 1-2-1-1-3-4 2-5 2h-8l-7-4-5-8-1-10 3-9 8-7z"/>
<path transform="translate(1024,523)" d="m0 0 9 1 6 4 4 5 2 7v7l-4 8-7 6-3 1h-10l-7-4-4-5-2-4v-12l4-8 8-5z"/>
<path transform="translate(747,612)" d="m0 0h21l5 3 4 5 1 3v9l-3 6-5 4-4 1h-15v12l-2 7-5-1v-47z"/>
<path transform="translate(563,517)" d="m0 0h9l10 2 4 5 3 8v9l-3 8-5 5-10 2h-8l-3-2v-34z" fill="#F7F2EA"/>
<path transform="translate(555,511)" d="m0 0h24l7 3 7 8 2 5 1 12-2 9-5 8-5 4-8 2h-18l-4-1-1-5v-34l1-10zm8 6-3 3v34l3 2h8l10-2 5-5 3-8v-9l-4-10-3-3-10-2z"/>
<path transform="translate(1030,624)" d="m0 0h7l6 3 6 7 2 10-1 1h-27l2 7 5 4h8l11-3-1 5-8 5h-10l-8-4-4-5-2-5v-11l4-8 7-5z"/>
<path transform="translate(828,509)" d="m0 0h5l1 1 1 18 10-5 7 1 5 5 2 8v23l-1 1h-5l-1-1-1-24-3-5h-8l-4 4-1 2-1 22-1 2h-6v-51z"/>
<path transform="translate(944,624)" d="m0 0h7l5 3 3 6v28l-5 1-1-1-1-23-2-5-4-2-7 1-4 1-2 29h-5l-1-1v-34l1-2 4 1 4 2z"/>
<path transform="translate(1021,530)" d="m0 0h10l6 5 1 2v11l-3 5-5 3h-8l-5-3-3-7v-8l4-6z" fill="#F7F2EA"/>
<path transform="translate(847,630)" d="m0 0h7l7 6 1 2v11l-3 5-6 3h-6l-6-5-2-5v-8l4-6z" fill="#F7F2EA"/>
<path transform="translate(666,529)" d="m0 0 9 2 4 5 1 2v10l-2 4-6 4h-8l-5-4-2-5v-9l4-6z" fill="#F7F2EA"/>
<path transform="translate(1282,530)" d="m0 0h10l5 4 2 5v8l-3 5-5 4h-8l-5-4-3-9 2-8z" fill="#F7F2EA"/>
<path transform="translate(935,529)" d="m0 0 7 2 4 5 1 3v8l-4 6-4 3h-8l-5-4-2-4v-11l5-6z" fill="#F7F2EA"/>
<path transform="translate(1117,529)" d="m0 0 6 2 4 4 2 5-1 9-5 6-2 1h-8l-6-5-2-9 2-7 5-5z" fill="#F7F2EA"/>
<path transform="translate(754,523)" d="m0 0h7l6 3 3 3-1 4-5-2-3-1h-10l1 7 15 6 4 5v6l-4 6-9 3-10-3-5-4v-4l5 1 6 3h7l3-2v-6l-10-3-6-3-4-5 1-8 6-5z"/>
<path transform="translate(751,618)" d="m0 0h14l5 3 2 5-1 7-4 3-4 1h-11l-2-6v-11z" fill="#F7F2EA"/>
<path transform="translate(1109,609)" d="m0 0 5 2v50l-1 1h-5l-1-1v-39l1-12z"/>
<path transform="translate(1213,523)" d="m0 0 3 1 1 3-1 2-10 2-4 4-1 3-1 22-1 1h-5v-35l1-2h3l1 5 10-5z"/>
<path transform="translate(1030,630)" d="m0 0h7l5 4 2 5-1 1h-20l1-5z" fill="#F7F2EA"/>
</svg>
