<svg version="1.1" id="Layer_1" xmlns="http://www.w3.org/2000/svg" xmlns:xlink="http://www.w3.org/1999/xlink" x="0px" y="0px"
	 width="100%" viewBox="0 0 665 375" enable-background="new 0 0 665 375" xml:space="preserve">
<path fill="#FEFEFE" opacity="1.000000" stroke="none" 
	d="
M1.000000,217.000000 
	C1.000000,145.028137 1.000000,73.056282 1.000000,1.042209 
	C222.551895,1.042209 444.103790,1.042209 666.000000,1.042209 
	C666.000000,75.355621 666.000000,149.711777 665.564697,224.530121 
	C655.947693,226.226532 646.766113,227.460770 637.172363,228.687714 
	C634.495056,228.889740 632.229858,229.099060 629.647095,229.227814 
	C628.910645,229.243103 628.491638,229.338959 627.668457,229.384430 
	C624.506836,229.643600 621.749268,229.953171 618.744873,230.217133 
	C618.340454,230.228043 618.182861,230.284592 617.617310,230.292694 
	C614.468811,230.578583 611.728271,230.912903 608.742493,231.197571 
	C608.339722,231.202713 608.182129,231.257492 607.607788,231.270447 
	C593.460022,232.530624 579.728943,233.832626 565.557617,235.074432 
	C562.071106,235.334213 559.024963,235.654160 555.641968,235.929581 
	C554.861694,235.966064 554.418213,236.047073 553.526367,236.087326 
	C543.383118,236.842834 533.688232,237.639130 523.586426,238.369141 
	C520.360596,238.513626 517.540649,238.711670 514.723022,238.937561 
	C506.471680,239.599167 498.221222,240.271866 489.507080,240.884186 
	C483.338898,241.177490 477.634064,241.526779 471.550629,241.726776 
	C454.779846,242.472580 438.387604,243.367645 421.533997,244.186584 
	C415.711731,244.408737 410.350861,244.707001 404.539490,244.931976 
	C401.049713,244.992493 398.010437,245.126282 394.715210,245.198151 
	C394.294189,245.195999 394.129089,245.255753 393.517609,245.243958 
	C389.056213,245.397171 385.041229,245.621948 380.567932,245.771072 
	C376.397736,245.819885 372.685822,245.944351 368.602356,245.981598 
	C351.440704,245.901886 334.650635,245.906799 317.860535,245.918701 
	C313.572632,245.921738 309.284729,245.946793 304.548462,245.875183 
	C298.446838,245.687790 292.793579,245.586914 286.683899,245.340134 
	C278.483307,245.116852 270.739044,245.039459 262.556763,244.888092 
	C258.727356,244.724625 255.335983,244.635101 251.510620,244.381302 
	C246.720978,244.155319 242.365295,244.093628 237.758011,243.975677 
	C237.335892,243.941193 237.165390,243.962982 236.750809,243.892471 
	C236.340897,243.852768 236.175079,243.905350 235.621872,243.895874 
	C233.929718,243.813675 232.624969,243.793549 231.169418,243.636749 
	C230.689438,243.653915 230.360260,243.807770 229.599365,243.975098 
	C227.444183,244.045837 225.720718,244.103088 223.556137,244.092987 
	C220.738617,244.048859 218.362198,244.072113 216.000397,244.072311 
	C216.015015,244.049255 215.974487,244.012680 215.695953,243.782593 
	C212.914124,243.248428 210.410843,242.944336 207.531921,242.522461 
	C206.107834,242.397491 205.059372,242.390305 203.604309,242.233887 
	C199.794998,242.009842 196.392288,241.935013 192.610077,241.756210 
	C190.151901,241.528503 188.073227,241.404770 185.632935,241.162766 
	C184.511719,241.052292 183.752121,241.060089 182.621170,240.910980 
	C176.136063,240.347473 170.022308,239.940857 163.513519,239.436707 
	C161.765045,239.295685 160.411606,239.252213 158.719635,239.081451 
	C156.580276,238.921921 154.779419,238.889679 152.674011,238.773407 
	C151.742859,238.671371 151.116272,238.653336 150.146271,238.420059 
	C148.196701,238.154037 146.590530,238.103241 144.569519,237.970596 
	C139.548096,237.402069 134.937607,236.949661 130.335693,236.422501 
	C114.562462,234.615631 98.792244,232.782486 82.852219,230.831635 
	C82.683556,230.703888 82.272560,230.804581 81.968399,230.596313 
	C80.444122,230.316177 79.223999,230.244278 77.662766,230.061234 
	C76.375977,229.920059 75.430290,229.890060 74.155647,229.613892 
	C72.220856,229.240341 70.615028,229.112961 68.720428,228.842926 
	C67.797737,228.676590 67.163826,228.652924 66.178574,228.429382 
	C64.220726,228.149765 62.614231,228.070023 60.573597,227.934738 
	C58.202633,227.683548 56.237385,227.634888 54.333870,227.266891 
	C45.882050,225.632919 37.447922,223.907410 28.585281,222.046722 
	C25.768227,221.621536 23.341858,221.528549 20.984331,221.076523 
	C14.307799,219.796371 7.659450,218.369247 1.000000,217.000000 
M447.702637,221.881897 
	C450.406036,219.573715 448.386932,217.812988 446.893921,215.696198 
	C446.799957,215.650024 446.705963,215.603867 446.612000,215.557709 
	C446.732635,215.712128 446.853302,215.866547 446.956787,216.733963 
	C446.970367,218.488297 446.983978,220.242615 446.494263,222.009827 
	C446.208466,222.139664 445.922699,222.269516 445.636902,222.399353 
	C445.729492,222.529770 445.822083,222.660202 445.914673,222.790604 
	C446.277100,222.527985 446.639526,222.265366 447.702637,221.881897 
M212.196182,224.544373 
	C212.601913,224.511185 213.007660,224.478012 213.413391,224.444809 
	C212.982651,224.253494 212.551895,224.062180 211.957184,223.133423 
	C211.741379,220.552155 211.525558,217.970886 211.303131,215.310455 
	C206.646347,218.961380 206.845612,221.408722 212.196182,224.544373 
M332.172485,222.038605 
	C332.172485,220.178558 332.172485,218.318527 332.172485,216.469513 
	C327.887238,219.106171 327.837341,219.999680 332.045074,223.825668 
	C333.955872,223.825668 335.866669,223.825668 337.448730,223.825668 
	C337.448730,218.851807 337.448730,214.561447 337.448730,210.271088 
	C336.862213,210.247665 336.275726,210.224228 335.689209,210.200790 
	C335.416656,212.591019 335.093414,214.976852 334.886627,217.372757 
	C334.700897,219.524826 335.963806,222.315491 332.172485,222.038605 
M291.211334,224.526230 
	C291.613861,224.496979 292.016388,224.467743 292.418915,224.438507 
	C291.986633,224.249084 291.554321,224.059662 291.066162,223.033600 
	C291.066162,220.855148 291.066162,218.676697 291.066162,216.498245 
	C291.738800,216.457199 292.411469,216.416138 293.084106,216.375092 
	C293.449280,218.484360 293.814453,220.593628 294.224457,222.961823 
	C294.789734,223.033554 295.737518,223.153824 297.185730,223.337601 
	C296.938904,219.039078 296.710938,215.069656 296.467133,210.823639 
	C293.808990,212.827133 292.261322,214.226242 290.502899,215.270386 
	C286.901245,217.408997 287.047943,221.771225 291.211334,224.526230 
M403.919556,221.631714 
	C405.576233,221.328049 407.285583,221.183502 408.869171,220.659119 
	C409.774139,220.359467 411.181549,219.358047 411.118134,218.819077 
	C410.989502,217.726105 409.817871,215.778275 409.422241,215.859909 
	C407.486725,216.259247 405.665100,217.210449 403.105865,217.979919 
	C401.671143,217.153458 400.236450,216.326996 398.125488,215.111008 
	C399.092987,217.223785 399.797150,218.761520 400.510895,220.320175 
	C399.475952,221.287964 398.436646,222.259888 396.706482,223.877838 
	C396.706482,220.591660 396.706482,218.091125 396.706482,214.687149 
	C395.236633,215.330658 393.339539,215.777390 393.340240,216.221130 
	C393.346283,220.067322 391.683502,224.236298 394.416077,227.734161 
	C397.829254,225.273743 400.767212,223.155884 403.919556,221.631714 
M309.000000,124.000000 
	C309.000000,124.000000 309.012238,123.990898 308.900513,123.277802 
	C307.233398,117.850105 305.566284,112.422401 304.061096,106.179573 
	C305.136261,101.489372 306.211426,96.799171 307.838867,91.751808 
	C309.469574,89.455986 310.870087,86.946991 312.767639,84.898354 
	C326.941772,69.595749 349.469513,70.238731 363.026459,86.336403 
	C365.164368,88.875015 367.083954,91.112709 371.084991,89.074989 
	C365.814087,75.847855 355.389404,69.171265 342.234619,67.572655 
	C326.733215,65.688873 314.018097,71.760361 304.326111,85.138390 
	C300.215637,91.860352 297.380615,98.960991 297.716278,107.912125 
	C298.288055,115.368744 299.826385,122.490257 304.939636,129.077209 
	C309.543579,135.040131 315.092621,139.683640 323.135773,141.522812 
	C322.745209,138.910919 322.205322,136.225372 320.620178,134.500366 
	C318.551544,132.249222 315.654968,130.758926 312.861298,128.337708 
	C311.577454,126.887833 310.293640,125.437958 309.000000,124.000000 
M333.686737,149.498108 
	C333.616089,149.334717 333.545410,149.171341 333.622009,148.255844 
	C333.562012,147.496140 333.501984,146.736420 333.651855,145.504654 
	C333.580322,145.347992 333.508789,145.191345 333.610382,144.127441 
	C333.789215,140.183090 333.968048,136.238739 334.503021,131.988037 
	C334.693573,131.688095 334.688324,131.391647 334.766846,130.425903 
	C334.834717,129.947647 334.902588,129.469376 335.400024,128.444839 
	C342.041138,112.627251 353.811737,104.568016 371.094574,104.755089 
	C378.019958,104.830055 384.946808,104.767418 391.705658,104.767418 
	C393.306335,97.722168 393.016754,97.233513 387.034515,97.355553 
	C379.379608,97.511719 371.628876,97.131302 364.095276,98.209984 
	C348.243744,100.479630 336.106567,108.225548 330.035339,124.725807 
	C325.032074,137.060532 327.587494,149.907700 326.797913,163.873444 
	C329.540283,161.728546 331.275879,160.371078 333.509796,158.589554 
	C333.491180,157.748016 333.472534,156.906494 333.624939,155.209824 
	C333.579987,153.471420 333.535034,151.733002 333.686737,149.498108 
M353.045197,141.125900 
	C355.108734,139.793015 357.026611,138.103851 359.261505,137.190094 
	C368.000305,133.617157 375.486511,122.660202 375.373383,113.045593 
	C372.025146,111.850555 369.553162,111.811066 368.344818,116.215965 
	C366.028534,124.659668 360.347198,130.542465 352.288879,134.883362 
	C351.786163,135.192337 351.283478,135.501312 350.011719,135.868027 
	C348.023560,136.388657 346.035370,136.909302 343.263794,137.231384 
	C338.285797,137.069046 338.575958,140.025467 339.600708,144.739334 
	C344.063934,143.529358 348.216370,142.403625 353.045197,141.125900 
M275.048004,191.542877 
	C286.492889,178.656265 280.442230,158.032211 263.603027,154.612762 
	C256.331055,153.136078 248.509613,154.365250 240.984421,154.365250 
	C240.984421,169.525757 240.984421,184.579926 240.984421,199.765366 
	C246.931793,199.765366 252.431961,199.985291 257.906982,199.708344 
	C264.393951,199.380188 270.390961,197.601288 275.048004,191.542877 
M479.598083,199.918228 
	C487.212128,199.918228 494.826202,199.918228 502.684692,199.918228 
	C502.684692,197.224808 502.684692,195.129532 502.684692,192.570236 
	C498.113007,192.570236 493.645752,192.562469 489.178558,192.571793 
	C478.647675,192.593781 478.643097,192.596786 479.287231,182.050949 
	C479.315979,181.580429 479.564270,181.123322 479.889862,180.090149 
	C487.154785,180.090149 494.550201,180.090149 502.025513,180.090149 
	C502.025513,177.585037 502.025513,175.676132 502.025513,173.192871 
	C494.316559,173.192871 486.918793,173.192871 479.586914,173.192871 
	C479.586914,168.702682 479.586914,164.795441 479.586914,160.278381 
	C487.479340,160.278381 495.036865,160.278381 502.729675,160.278381 
	C502.729675,157.877090 502.729675,156.101028 502.729675,154.088470 
	C492.511871,154.088470 482.469513,154.088470 472.379639,154.088470 
	C472.379639,169.434601 472.379639,184.474915 472.379639,199.917175 
	C474.689117,199.917175 476.658386,199.917175 479.598083,199.918228 
M440.581085,192.357422 
	C440.581085,181.768890 440.581085,171.180374 440.581085,160.684799 
	C452.095062,159.388077 456.902039,161.470413 457.895966,167.801132 
	C458.981384,174.714478 456.164734,177.339493 444.490326,179.542892 
	C447.593262,184.907303 450.610840,189.942001 453.443970,195.078430 
	C455.810608,199.369125 459.008392,201.207916 464.090698,199.250580 
	C461.229889,194.350662 458.422394,189.542099 455.593201,184.696381 
	C457.341705,183.181885 458.935608,181.971664 460.328735,180.562927 
	C464.652985,176.190353 466.224945,170.923752 464.492462,165.012360 
	C462.836487,159.362076 459.210724,154.990784 453.189453,154.365936 
	C446.850861,153.708160 440.391022,154.218582 434.081177,154.218582 
	C434.081177,169.542969 434.081177,184.581985 434.081177,199.576477 
	C436.366760,199.576477 438.258148,199.576477 440.561584,199.576477 
	C440.561584,197.266876 440.561584,195.287842 440.581085,192.357422 
M392.765411,162.596100 
	C392.778656,169.921921 392.603760,177.254166 392.852966,184.571945 
	C393.160309,193.597198 398.824829,199.588104 407.198029,200.230576 
	C417.445190,201.016846 425.391388,196.166321 426.203094,186.876831 
	C427.149597,176.044815 426.424103,165.066696 426.424103,154.293030 
	C423.992737,154.293030 421.766327,154.293030 419.238586,154.293030 
	C419.238586,164.652435 419.419556,174.627563 419.167542,184.591736 
	C419.026917,190.152512 415.675781,192.979950 410.152710,193.105499 
	C404.502991,193.233948 400.604736,190.232254 399.950500,185.001358 
	C399.642029,182.535355 399.688751,180.017639 399.678955,177.522934 
	C399.648438,169.749817 399.667786,161.976501 399.667786,154.040192 
	C397.081573,154.040192 395.136810,154.040192 392.766174,154.040192 
	C392.766174,156.711792 392.766174,159.172882 392.765411,162.596100 
M214.299484,184.326721 
	C212.903412,186.199982 211.507324,188.073242 209.474365,190.801071 
	C214.255219,190.801071 217.425735,191.017136 220.554153,190.746536 
	C224.492249,190.405899 227.265457,191.082169 228.035431,195.676956 
	C228.880188,200.717804 232.445526,200.303131 236.517700,199.401352 
	C230.844376,184.796768 225.383240,170.540924 219.669968,156.386826 
	C219.186432,155.188919 217.033539,154.072037 215.624054,154.031387 
	C214.529633,153.999817 212.867798,155.480515 212.346390,156.676315 
	C208.830414,164.740143 205.477448,172.877823 202.219971,181.050690 
	C199.802444,187.116135 197.608444,193.270676 195.316742,199.380539 
	C200.371445,201.072662 202.600906,199.030106 204.071167,194.984344 
	C206.852982,187.329468 209.881088,179.762756 212.893799,172.194031 
	C213.706207,170.153091 214.831207,168.236603 216.262772,165.358093 
	C218.785965,172.203232 220.880646,177.885864 223.218811,184.229004 
	C220.082779,184.229004 217.603409,184.229004 214.299484,184.326721 
M372.318207,159.979767 
	C375.292694,161.132141 378.267151,162.284500 381.806244,163.655609 
	C382.798615,162.452911 384.223755,160.725739 385.791779,158.825424 
	C380.940521,154.197586 375.429108,152.919495 369.437469,153.508453 
	C362.464081,154.193939 357.843109,158.197968 357.095459,163.810623 
	C356.250061,170.157013 359.155426,174.854416 365.936615,177.690063 
	C369.135864,179.027893 372.917419,179.423203 375.607117,181.382339 
	C377.630554,182.856171 379.533264,186.294357 379.241852,188.570251 
	C379.014648,190.344360 375.304596,192.972595 373.184082,192.933868 
	C368.752350,192.852905 364.348145,191.261047 359.349640,190.161575 
	C354.481293,194.205231 354.503540,196.201538 361.270264,198.265152 
	C366.030914,199.716980 371.385162,200.209671 376.348907,199.756454 
	C382.456207,199.198822 386.109894,194.353363 386.756470,188.110321 
	C387.363800,182.246292 384.977753,178.014252 379.339294,175.300369 
	C376.203125,173.790863 373.002716,172.395401 369.759003,171.134491 
	C366.857605,170.006622 363.793793,168.833115 364.226135,165.119308 
	C364.693909,161.101318 367.714539,159.786774 372.318207,159.979767 
M308.764038,188.277542 
	C313.092621,176.979675 317.421173,165.681793 321.755402,154.369171 
	C316.793518,152.860489 314.096039,154.119385 312.400848,159.243759 
	C309.295135,168.631882 305.357025,177.744675 301.194794,188.440002 
	C297.322113,177.993896 293.884399,168.891891 290.577057,159.742767 
	C288.167358,153.076721 288.244019,153.049011 280.803040,154.434006 
	C286.073669,168.422470 291.324066,182.356583 296.572998,196.291245 
	C296.748718,196.757736 296.771545,197.464493 297.101440,197.658630 
	C298.523499,198.495605 300.033875,199.746918 301.511505,199.746124 
	C302.689789,199.745499 304.316803,198.394577 304.953339,197.215790 
	C306.363434,194.604248 307.275909,191.724060 308.764038,188.277542 
M342.863617,180.499512 
	C342.863617,186.895935 342.863617,193.292343 342.863617,199.615692 
	C345.636353,199.615692 347.568878,199.615692 349.791351,199.615692 
	C349.791351,184.382507 349.791351,169.384979 349.791351,154.154205 
	C347.506561,154.154205 345.440613,154.154205 342.861969,154.154205 
	C342.861969,162.679245 342.861969,171.089508 342.863617,180.499512 
M333.987244,181.517670 
	C333.987244,177.438263 333.987244,173.358856 333.987244,167.701767 
	C330.940704,170.480728 327.387909,172.174362 327.244415,174.119492 
	C326.615448,182.646057 326.973450,191.245422 326.973450,199.659225 
	C329.625580,199.659225 331.560150,199.659225 333.984772,199.659225 
	C333.984772,193.756134 333.984772,188.133926 333.987244,181.517670 
M432.032135,218.432373 
	C432.975525,219.197784 433.918945,219.963181 435.413452,221.175735 
	C433.199677,221.812363 431.767273,222.224274 430.012756,222.728821 
	C434.913574,229.475006 437.714996,218.462234 441.952576,222.308044 
	C442.125671,219.819687 442.268494,217.766754 442.478851,214.742661 
	C440.622803,216.985794 439.596497,218.226089 438.342438,219.741684 
	C436.395172,218.236664 434.632202,216.874100 432.282318,215.057907 
	C434.915070,214.178818 436.332092,213.705673 437.749084,213.232513 
	C437.600800,212.598389 437.452484,211.964264 437.304199,211.330139 
	C435.190674,211.800552 432.782867,211.831085 431.105347,212.953293 
	C430.413818,213.415894 431.291779,216.224594 432.032135,218.432373 
M363.490814,215.922028 
	C360.244568,215.998215 359.308014,218.250504 360.198151,220.637024 
	C360.833069,222.339401 362.922394,223.499313 364.362701,224.901306 
	C365.798065,223.344604 367.938904,222.009399 368.512604,220.182144 
	C369.510925,217.002319 367.132751,215.958450 363.490814,215.922028 
M345.539978,224.295227 
	C345.744843,223.823807 345.949707,223.352402 346.154602,222.880997 
	C344.800262,222.586121 343.445923,222.291229 340.855255,221.727158 
	C342.680237,220.831451 343.135956,220.668228 343.524597,220.405670 
	C344.659302,219.639038 345.767212,218.832779 346.885620,218.042053 
	C346.088531,217.135376 345.222290,215.429474 344.509003,215.491180 
	C343.097443,215.613297 341.240082,216.362961 340.508545,217.473434 
	C338.364624,220.727829 340.305969,223.594986 345.539978,224.295227 
M303.425171,218.516724 
	C305.022858,224.079391 306.450928,224.817841 312.831543,223.373917 
	C312.831543,221.636826 312.831543,219.899750 312.831543,217.944504 
	C311.612366,218.034225 310.660858,218.104263 310.184204,218.139343 
	C310.779602,219.391571 311.444489,220.607391 311.843445,221.904968 
	C311.884338,222.038055 310.122589,223.182495 309.562775,222.955658 
	C308.011932,222.327286 306.203064,221.517227 305.353210,220.218262 
	C304.576202,219.030624 304.919189,217.110245 304.768585,215.512772 
	C304.552856,215.509735 304.337158,215.506714 304.121429,215.503677 
	C303.893677,216.257492 303.665924,217.011322 303.425171,218.516724 
M484.977966,223.031967 
	C485.612549,222.580154 486.522064,222.264496 486.826752,221.649292 
	C487.547821,220.193420 487.981537,218.595215 488.531372,217.054550 
	C489.112061,218.705002 489.695953,220.354340 490.270721,222.006851 
	C490.385834,222.337769 490.466278,222.680756 490.562683,223.018188 
	C491.535370,220.615143 492.065369,217.927399 491.027283,216.161469 
	C490.436127,215.155823 487.283722,215.655807 484.911438,215.444565 
	C484.911438,218.198883 484.911438,220.180359 484.977966,223.031967 
M467.394470,217.063187 
	C467.051331,215.778061 466.708191,214.492935 466.200775,212.592621 
	C463.400024,217.078217 464.451843,223.139359 467.279572,223.945511 
	C467.158813,221.863388 467.034302,219.715988 467.394470,217.063187 
M452.124969,216.609436 
	C452.124969,214.656952 452.124969,212.704468 452.124969,210.751999 
	C451.696198,210.787338 451.267395,210.822678 450.838623,210.858032 
	C450.838623,215.179276 450.838623,219.500519 450.838623,223.821762 
	C451.265839,223.814758 451.693054,223.807755 452.120270,223.800751 
	C452.120270,221.710419 452.120270,219.620071 452.124969,216.609436 
M475.146118,223.503387 
	C476.393677,224.039154 477.641235,224.574921 478.808868,225.076370 
	C477.867157,221.852707 477.049316,219.053116 476.231445,216.253525 
	C475.708435,216.264908 475.185425,216.276291 474.662415,216.287659 
	C474.662415,218.529602 474.662415,220.771545 475.146118,223.503387 
M215.093613,217.235947 
	C214.994614,219.066620 214.895630,220.897293 214.796646,222.727966 
	C215.201813,222.871872 215.606979,223.015762 216.012131,223.159668 
	C216.633102,221.768036 217.973419,220.210846 217.700485,219.024948 
	C217.324417,217.391006 215.729614,216.037567 214.656906,214.563965 
	C214.266357,214.882919 213.875809,215.201889 213.485275,215.520844 
	C213.844254,215.977249 214.203232,216.433655 215.093613,217.235947 
M483.041962,219.731628 
	C482.313843,218.430450 481.585693,217.129272 480.857574,215.828094 
	C480.538879,215.987183 480.220184,216.146255 479.901489,216.305328 
	C480.038696,218.468597 480.175903,220.631866 480.313080,222.795135 
	C480.757416,222.881775 481.201752,222.968399 481.646057,223.055023 
	C482.108154,222.210571 482.570221,221.366104 483.041962,219.731628 
M356.173950,218.139603 
	C356.173950,219.202667 356.173950,220.265732 356.173950,221.328796 
	C356.404968,221.319138 356.635986,221.309494 356.866974,221.299835 
	C356.759949,220.065933 356.652893,218.832047 356.173950,218.139603 
M443.781036,224.785538 
	C443.968933,224.647583 444.156799,224.509644 444.344696,224.371689 
	C444.078461,224.402863 443.812225,224.434021 443.781036,224.785538 
z"/>
<path fill="#FFFFFF" opacity="1.000000" stroke="none" 
	d="
M666.000000,230.000000 
	C666.000000,278.643585 666.000000,327.287140 666.000000,375.936646 
	C444.333313,375.942566 222.666656,375.942566 1.000000,375.942566 
	C1.000000,340.235291 1.000000,304.585510 1.430463,268.265869 
	C17.564274,268.179291 33.267620,268.762482 49.387810,269.506836 
	C51.884064,269.689056 53.963482,269.710083 56.487114,269.861053 
	C79.202797,270.044678 101.474709,270.201050 123.745537,270.105225 
	C133.674469,270.062531 143.601212,269.512390 153.861023,269.298035 
	C155.112289,269.330261 156.031509,269.256989 157.324005,269.344421 
	C167.420547,269.159058 177.143799,268.813019 187.253220,268.543427 
	C189.762299,268.435577 191.885178,268.251251 194.416428,268.164703 
	C196.215210,268.152588 197.605652,268.042694 199.459900,268.008942 
	C213.938538,267.350922 227.953339,266.616760 242.413452,265.967163 
	C245.549683,265.895447 248.240631,265.739197 251.363052,265.639648 
	C253.509995,265.515533 255.225433,265.334717 257.344513,265.308716 
	C263.141083,265.162872 268.534027,264.862213 274.279236,264.637512 
	C276.063690,264.535309 277.495850,264.357208 279.236084,264.304962 
	C281.695160,264.246979 283.846252,264.063110 286.373535,263.949890 
	C287.506195,263.945526 288.262665,263.870514 289.342499,263.873535 
	C290.095673,263.865143 290.525421,263.778717 291.371887,263.758881 
	C293.181183,263.701477 294.573761,263.577454 296.366058,263.545685 
	C298.842041,263.415009 300.918274,263.192047 303.367859,263.041931 
	C304.493774,263.039032 305.246338,262.963287 306.250793,262.954468 
	C306.666870,262.964752 306.831085,262.908051 307.373230,262.919403 
	C308.510620,262.915527 309.270020,262.843628 310.415619,262.848297 
	C311.837219,262.807648 312.872650,262.690460 314.322510,262.634949 
	C315.832275,262.542389 316.927612,262.388092 318.423950,262.373779 
	C331.213928,261.700592 343.602844,260.887482 356.250488,260.122314 
	C356.674072,260.110382 356.838928,260.050507 357.444427,260.058838 
	C360.248138,259.966278 362.611206,259.805481 365.405853,259.728821 
	C369.222961,259.495850 372.608521,259.178741 376.247803,258.916443 
	C376.666870,258.919983 376.832153,258.868744 377.410828,258.884308 
	C379.205475,258.832153 380.586792,258.713226 382.320068,258.672668 
	C384.101685,258.552032 385.531281,258.353027 387.271790,258.283508 
	C390.353607,258.149689 393.124542,257.886322 396.270386,257.669647 
	C397.136780,257.623291 397.628265,257.530212 398.344238,257.522888 
	C398.916199,257.584747 399.188477,257.429169 399.709473,257.207214 
	C400.684906,257.186768 401.336456,257.100922 402.216187,257.150208 
	C403.289948,257.168304 404.135529,257.051239 405.382019,256.991089 
	C406.848633,256.914398 407.914307,256.780762 409.419495,256.733398 
	C416.251312,256.166656 422.643646,255.513611 429.489990,254.913498 
	C435.736481,254.580887 441.538666,254.303650 447.319275,253.785690 
	C457.202576,252.900162 467.072388,251.863831 477.399445,250.964798 
	C484.233246,250.488708 490.615479,249.938660 497.403870,249.490387 
	C503.887726,248.964523 509.965363,248.336853 516.271240,247.765518 
	C516.499512,247.821869 516.944153,247.668976 517.323547,247.719238 
	C519.467773,247.474396 521.232666,247.179306 523.441101,246.932480 
	C535.589233,245.579285 547.293701,244.177826 559.333313,242.839249 
	C560.115417,242.836212 560.562378,242.770294 561.424377,242.760208 
	C565.405029,242.237427 568.970764,241.658829 572.957581,241.173645 
	C588.921021,239.441010 604.463257,237.614960 620.256104,235.823883 
	C620.662659,235.794769 620.818665,235.730698 621.319824,235.679779 
	C622.777466,235.382004 623.889771,235.071075 625.253174,234.797119 
	C625.661072,234.770615 625.817932,234.707108 626.377075,234.660660 
	C629.498169,234.202759 632.216919,233.727814 635.234497,233.402451 
	C636.339661,233.315567 637.146057,233.079086 638.331299,232.877167 
	C639.452515,232.781174 640.195007,232.650635 641.348999,232.614288 
	C649.840393,231.805664 657.920227,230.902832 666.000000,230.000000 
z"/>
<path fill="#095373" opacity="1.000000" stroke="none" 
	d="
M1.000000,217.468658 
	C7.659450,218.369247 14.307799,219.796371 20.984331,221.076523 
	C23.341858,221.528549 25.768227,221.621536 28.504230,222.381805 
	C27.700972,223.017258 26.502758,222.977356 25.423052,223.315674 
	C22.820671,224.131088 19.573921,224.479462 17.936916,226.258392 
	C16.735136,227.564362 16.959322,231.169662 17.872017,233.135559 
	C18.664230,234.841934 21.165274,236.136597 23.179337,236.805389 
	C26.267092,237.830704 27.232370,239.233932 26.802681,242.609909 
	C26.345486,246.201981 25.989120,250.734818 32.309120,249.405731 
	C32.742188,249.314651 33.431118,250.440231 33.717072,251.291626 
	C29.955019,252.055511 26.476952,252.527756 22.614895,252.994370 
	C15.153934,251.325836 8.076967,249.662918 1.000000,248.000000 
	C1.000000,237.979111 1.000000,227.958206 1.000000,217.468658 
z"/>
<path fill="#0C5669" opacity="1.000000" stroke="none" 
	d="
M1.000000,248.468414 
	C8.076967,249.662918 15.153934,251.325836 22.778397,253.318970 
	C24.536707,255.088425 25.470873,257.113525 27.016632,257.843475 
	C30.117432,259.307770 33.552361,260.064514 36.990501,261.158234 
	C36.213604,263.087189 35.755447,264.224762 35.233532,265.520630 
	C37.273228,266.208588 38.968281,266.876740 40.716457,267.347687 
	C43.449059,268.083862 46.217632,268.686493 48.970966,269.345703 
	C33.267620,268.762482 17.564274,268.179291 1.430463,267.798035 
	C1.000000,261.645599 1.000000,255.291214 1.000000,248.468414 
z"/>
<path fill="#B7B976" opacity="1.000000" stroke="none" 
	d="
M666.000000,229.583344 
	C657.920227,230.902832 649.840393,231.805664 641.359131,232.247498 
	C639.833252,230.755997 638.708862,229.725494 637.584473,228.694992 
	C646.766113,227.460770 655.947693,226.226532 665.564697,224.996155 
	C666.000000,226.388885 666.000000,227.777786 666.000000,229.583344 
z"/>
<path fill="#0D5F80" opacity="1.000000" stroke="none" 
	d="
M83.020874,230.959381 
	C98.792244,232.782486 114.562462,234.615631 130.335693,236.422501 
	C134.937607,236.949661 139.548096,237.402069 144.592804,238.187805 
	C145.030975,238.486847 145.070267,238.921967 144.825104,239.210419 
	C136.249176,238.695938 127.924286,237.822357 119.584305,237.130768 
	C116.893593,236.907639 114.055481,234.927246 111.444412,238.329391 
	C110.800789,239.167984 107.064079,237.862350 104.864822,237.173569 
	C103.870438,236.862122 103.158783,235.647949 102.963615,235.460983 
	C101.221695,237.342072 99.957474,238.612000 98.812012,239.981277 
	C98.161293,240.759155 97.704964,241.699646 97.161087,242.566925 
	C97.941765,243.036728 98.673805,243.783295 99.511169,243.930435 
	C104.178871,244.750549 108.872093,245.425476 113.543152,246.147964 
	C112.737717,252.236465 117.196594,251.066177 120.210083,252.068863 
	C123.241409,253.077469 126.079613,254.666519 128.585754,256.001709 
	C126.780128,256.002441 125.391182,256.002686 123.708389,255.705505 
	C110.610497,254.938110 97.806473,254.468140 84.935020,253.636856 
	C80.412155,251.850098 75.913849,250.544174 71.513252,248.965836 
	C67.056641,247.367401 61.462849,246.621506 58.599300,243.472427 
	C54.818611,239.314758 50.405136,237.630844 45.691193,235.775070 
	C44.406189,235.269196 43.177002,234.621552 41.922203,234.038956 
	C41.912197,233.483002 41.902187,232.927048 41.892181,232.371109 
	C44.169456,231.889755 47.005192,230.309891 48.620323,231.130997 
	C53.664799,233.695496 57.866127,233.715668 62.609509,229.845428 
	C62.075138,229.226517 61.541439,228.608383 61.007736,227.990265 
	C62.614231,228.070023 64.220726,228.149765 65.905746,228.629150 
	C68.605125,232.706177 74.607277,233.277252 78.003876,230.172394 
	C79.223999,230.244278 80.444122,230.316177 81.778809,230.722580 
	C81.928055,231.290192 81.962738,231.523270 81.997421,231.756363 
	C82.338570,231.490692 82.679718,231.225037 83.020874,230.959381 
z"/>
<path fill="#0A597A" opacity="1.000000" stroke="none" 
	d="
M60.573601,227.934738 
	C61.541439,228.608383 62.075138,229.226517 62.609509,229.845428 
	C57.866127,233.715668 53.664799,233.695496 48.620323,231.130997 
	C47.005192,230.309891 44.169456,231.889755 41.892181,232.371109 
	C41.902187,232.927048 41.912197,233.483002 41.922203,234.038956 
	C43.177002,234.621552 44.406189,235.269196 45.691193,235.775070 
	C50.405136,237.630844 54.818611,239.314758 58.599300,243.472427 
	C61.462849,246.621506 67.056641,247.367401 71.513252,248.965836 
	C75.913849,250.544174 80.412155,251.850098 84.491165,253.637543 
	C82.956818,254.002945 81.742935,253.780502 80.651283,254.051132 
	C77.075691,254.937515 73.544563,256.003235 69.540367,256.999878 
	C65.939713,256.893951 62.123245,257.900452 59.772285,256.480499 
	C51.684261,251.595566 42.525581,253.008087 34.001060,251.000000 
	C33.431118,250.440231 32.742188,249.314651 32.309120,249.405731 
	C25.989120,250.734818 26.345486,246.201981 26.802681,242.609909 
	C27.232370,239.233932 26.267092,237.830704 23.179337,236.805389 
	C21.165274,236.136597 18.664230,234.841934 17.872017,233.135559 
	C16.959322,231.169662 16.735136,227.564362 17.936916,226.258392 
	C19.573921,224.479462 22.820671,224.131088 25.423052,223.315674 
	C26.502758,222.977356 27.700972,223.017258 28.926346,222.550095 
	C37.447922,223.907410 45.882050,225.632919 54.333870,227.266891 
	C56.237385,227.634888 58.202633,227.683548 60.573601,227.934738 
z"/>
<path fill="#1A1E36" opacity="1.000000" stroke="none" 
	d="
M274.831360,191.829086 
	C270.390961,197.601288 264.393951,199.380188 257.906982,199.708344 
	C252.431961,199.985291 246.931793,199.765366 240.984421,199.765366 
	C240.984421,184.579926 240.984421,169.525757 240.984421,154.365250 
	C248.509613,154.365250 256.331055,153.136078 263.603027,154.612762 
	C280.442230,158.032211 286.492889,178.656265 274.831360,191.829086 
M271.902191,168.872635 
	C267.173065,160.985275 259.943542,158.514633 247.888367,160.958099 
	C247.888367,168.791702 247.888382,176.744827 247.888382,184.697952 
	C247.888382,187.149307 247.888367,189.600677 247.888367,191.944275 
	C267.184814,195.397141 277.355530,185.765961 271.902191,168.872635 
z"/>
<path fill="#1D2139" opacity="1.000000" stroke="none" 
	d="
M479.112854,199.917694 
	C476.658386,199.917175 474.689117,199.917175 472.379639,199.917175 
	C472.379639,184.474915 472.379639,169.434601 472.379639,154.088470 
	C482.469513,154.088470 492.511871,154.088470 502.729675,154.088470 
	C502.729675,156.101028 502.729675,157.877090 502.729675,160.278381 
	C495.036865,160.278381 487.479340,160.278381 479.586914,160.278381 
	C479.586914,164.795441 479.586914,168.702682 479.586914,173.192871 
	C486.918793,173.192871 494.316559,173.192871 502.025513,173.192871 
	C502.025513,175.676132 502.025513,177.585037 502.025513,180.090149 
	C494.550201,180.090149 487.154785,180.090149 479.889862,180.090149 
	C479.564270,181.123322 479.315979,181.580429 479.287231,182.050949 
	C478.643097,192.596786 478.647675,192.593781 489.178558,192.571793 
	C493.645752,192.562469 498.113007,192.570236 502.684692,192.570236 
	C502.684692,195.129532 502.684692,197.224808 502.684692,199.918228 
	C494.826202,199.918228 487.212128,199.918228 479.112854,199.917694 
z"/>
<path fill="#1D2139" opacity="1.000000" stroke="none" 
	d="
M440.571350,192.833115 
	C440.561584,195.287842 440.561584,197.266876 440.561584,199.576477 
	C438.258148,199.576477 436.366760,199.576477 434.081177,199.576477 
	C434.081177,184.581985 434.081177,169.542969 434.081177,154.218582 
	C440.391022,154.218582 446.850861,153.708160 453.189453,154.365936 
	C459.210724,154.990784 462.836487,159.362076 464.492462,165.012360 
	C466.224945,170.923752 464.652985,176.190353 460.328735,180.562927 
	C458.935608,181.971664 457.341705,183.181885 455.593201,184.696381 
	C458.422394,189.542099 461.229889,194.350662 464.090698,199.250580 
	C459.008392,201.207916 455.810608,199.369125 453.443970,195.078430 
	C450.610840,189.942001 447.593262,184.907303 444.490326,179.542892 
	C456.164734,177.339493 458.981384,174.714478 457.895966,167.801132 
	C456.902039,161.470413 452.095062,159.388077 440.581085,160.684799 
	C440.581085,171.180374 440.581085,181.768890 440.571350,192.833115 
z"/>
<path fill="#22273D" opacity="1.000000" stroke="none" 
	d="
M392.765808,162.115036 
	C392.766174,159.172882 392.766174,156.711792 392.766174,154.040192 
	C395.136810,154.040192 397.081573,154.040192 399.667786,154.040192 
	C399.667786,161.976501 399.648438,169.749817 399.678955,177.522934 
	C399.688751,180.017639 399.642029,182.535355 399.950500,185.001358 
	C400.604736,190.232254 404.502991,193.233948 410.152710,193.105499 
	C415.675781,192.979950 419.026917,190.152512 419.167542,184.591736 
	C419.419556,174.627563 419.238586,164.652435 419.238586,154.293030 
	C421.766327,154.293030 423.992737,154.293030 426.424103,154.293030 
	C426.424103,165.066696 427.149597,176.044815 426.203094,186.876831 
	C425.391388,196.166321 417.445190,201.016846 407.198029,200.230576 
	C398.824829,199.588104 393.160309,193.597198 392.852966,184.571945 
	C392.603760,177.254166 392.778656,169.921921 392.765808,162.115036 
z"/>
<path fill="#202338" opacity="1.000000" stroke="none" 
	d="
M214.711761,184.277863 
	C217.603409,184.229004 220.082779,184.229004 223.218811,184.229004 
	C220.880646,177.885864 218.785965,172.203232 216.262772,165.358093 
	C214.831207,168.236603 213.706207,170.153091 212.893799,172.194031 
	C209.881088,179.762756 206.852982,187.329468 204.071167,194.984344 
	C202.600906,199.030106 200.371445,201.072662 195.316742,199.380539 
	C197.608444,193.270676 199.802444,187.116135 202.219971,181.050690 
	C205.477448,172.877823 208.830414,164.740143 212.346390,156.676315 
	C212.867798,155.480515 214.529633,153.999817 215.624054,154.031387 
	C217.033539,154.072037 219.186432,155.188919 219.669968,156.386826 
	C225.383240,170.540924 230.844376,184.796768 236.517700,199.401352 
	C232.445526,200.303131 228.880188,200.717804 228.035431,195.676956 
	C227.265457,191.082169 224.492249,190.405899 220.554153,190.746536 
	C217.425735,191.017136 214.255219,190.801071 209.474365,190.801071 
	C211.507324,188.073242 212.903412,186.199982 214.711761,184.277863 
z"/>
<path fill="#202338" opacity="1.000000" stroke="none" 
	d="
M371.904480,159.973816 
	C367.714539,159.786774 364.693909,161.101318 364.226135,165.119308 
	C363.793793,168.833115 366.857605,170.006622 369.759003,171.134491 
	C373.002716,172.395401 376.203125,173.790863 379.339294,175.300369 
	C384.977753,178.014252 387.363800,182.246292 386.756470,188.110321 
	C386.109894,194.353363 382.456207,199.198822 376.348907,199.756454 
	C371.385162,200.209671 366.030914,199.716980 361.270264,198.265152 
	C354.503540,196.201538 354.481293,194.205231 359.349640,190.161575 
	C364.348145,191.261047 368.752350,192.852905 373.184082,192.933868 
	C375.304596,192.972595 379.014648,190.344360 379.241852,188.570251 
	C379.533264,186.294357 377.630554,182.856171 375.607117,181.382339 
	C372.917419,179.423203 369.135864,179.027893 365.936615,177.690063 
	C359.155426,174.854416 356.250061,170.157013 357.095459,163.810623 
	C357.843109,158.197968 362.464081,154.193939 369.437469,153.508453 
	C375.429108,152.919495 380.940521,154.197586 385.791779,158.825424 
	C384.223755,160.725739 382.798615,162.452911 381.806244,163.655609 
	C378.267151,162.284500 375.292694,161.132141 371.904480,159.973816 
z"/>
<path fill="#1D2139" opacity="1.000000" stroke="none" 
	d="
M308.577698,188.615479 
	C307.275909,191.724060 306.363434,194.604248 304.953339,197.215790 
	C304.316803,198.394577 302.689789,199.745499 301.511505,199.746124 
	C300.033875,199.746918 298.523499,198.495605 297.101440,197.658630 
	C296.771545,197.464493 296.748718,196.757736 296.572998,196.291245 
	C291.324066,182.356583 286.073669,168.422470 280.803040,154.434006 
	C288.244019,153.049011 288.167358,153.076721 290.577057,159.742767 
	C293.884399,168.891891 297.322113,177.993896 301.194794,188.440002 
	C305.357025,177.744675 309.295135,168.631882 312.400848,159.243759 
	C314.096039,154.119385 316.793518,152.860489 321.755402,154.369171 
	C317.421173,165.681793 313.092621,176.979675 308.577698,188.615479 
z"/>
<path fill="#0D688B" opacity="1.000000" stroke="none" 
	d="
M182.992523,241.067886 
	C183.752121,241.060089 184.511719,241.052292 185.654755,241.542542 
	C187.978638,245.631500 190.542450,244.084320 193.483978,242.906845 
	C195.599304,242.945648 197.293747,242.970428 199.078796,243.163284 
	C199.448654,243.223816 199.727890,243.116287 200.386353,242.999878 
	C201.523315,243.023834 202.281021,243.056656 203.265381,243.337830 
	C204.646088,244.040909 205.770432,244.684418 206.966461,244.872604 
	C207.585953,244.970078 208.332382,244.260880 209.456528,243.913040 
	C211.919220,243.944214 213.946854,243.978455 215.974487,244.012680 
	C215.974487,244.012680 216.015015,244.049255 216.294876,244.339401 
	C219.050430,244.754059 221.526138,244.878555 223.933472,245.361847 
	C219.606644,247.359055 219.326950,250.066544 221.713226,253.551758 
	C221.968811,253.925034 221.911530,254.512497 221.538834,255.000610 
	C207.385925,255.333115 193.693573,255.665634 179.943573,255.647369 
	C177.169724,252.817795 174.777817,249.720856 170.256775,251.826630 
	C169.326675,252.259811 167.501144,251.639389 166.532425,250.912628 
	C165.154648,249.879013 164.187805,248.297653 163.045380,246.950317 
	C164.473297,245.967422 165.780197,244.472214 167.352554,244.100845 
	C171.522491,243.115997 175.807098,242.616714 180.372330,241.924835 
	C181.463226,241.639557 182.227875,241.353729 182.992523,241.067886 
z"/>
<path fill="#2C8C99" opacity="1.000000" stroke="none" 
	d="
M330.368042,124.015633 
	C336.106567,108.225548 348.243744,100.479630 364.095276,98.209984 
	C371.628876,97.131302 379.379608,97.511719 387.034515,97.355553 
	C393.016754,97.233513 393.306335,97.722168 391.705658,104.767418 
	C384.946808,104.767418 378.019958,104.830055 371.094574,104.755089 
	C353.811737,104.568016 342.041138,112.627251 334.807922,128.718109 
	C329.416748,130.052124 332.467773,125.042305 330.368042,124.015633 
z"/>
<path fill="#799E64" opacity="1.000000" stroke="none" 
	d="
M304.892822,84.716293 
	C314.018097,71.760361 326.733215,65.688873 342.234619,67.572655 
	C355.389404,69.171265 365.814087,75.847855 371.084991,89.074989 
	C367.083954,91.112709 365.164368,88.875015 363.026459,86.336403 
	C349.469513,70.238731 326.941772,69.595749 312.767639,84.898354 
	C310.870087,86.946991 309.469574,89.455986 307.152344,91.838852 
	C305.941498,89.522697 305.417145,87.119499 304.892822,84.716293 
z"/>
<path fill="#6E9977" opacity="1.000000" stroke="none" 
	d="
M476.947845,250.890854 
	C467.072388,251.863831 457.202576,252.900162 447.319275,253.785690 
	C441.538666,254.303650 435.736481,254.580887 429.729980,254.673431 
	C430.607330,253.967438 431.698669,253.554398 434.272339,252.580353 
	C431.398895,251.318298 429.692902,250.900894 428.404144,249.929794 
	C426.133606,248.218979 424.117828,246.170090 421.995392,244.262726 
	C438.387604,243.367645 454.779846,242.472580 471.476410,242.014557 
	C472.177216,244.125763 472.213989,246.021347 473.070312,247.412430 
	C473.943115,248.830261 475.621918,249.751938 476.947845,250.890854 
z"/>
<path fill="#A1AB64" opacity="1.000000" stroke="none" 
	d="
M637.172363,228.687714 
	C638.708862,229.725494 639.833252,230.755997 640.947510,232.153305 
	C640.195007,232.650635 639.452515,232.781174 638.151978,232.660583 
	C636.707825,232.690582 635.821777,232.971725 634.935730,233.252853 
	C632.216919,233.727814 629.498169,234.202759 626.268555,234.544647 
	C625.414307,234.295898 625.162476,234.412079 625.002136,234.760132 
	C623.889771,235.071075 622.777466,235.382004 621.212158,235.561829 
	C620.414734,235.316116 620.163513,235.435516 620.005554,235.788925 
	C604.463257,237.614960 588.921021,239.441010 572.457031,241.160797 
	C568.026672,241.604507 564.518066,242.154449 561.009399,242.704407 
	C560.562378,242.770294 560.115417,242.836212 559.318359,242.472198 
	C557.892395,241.349258 556.899414,240.332214 555.723145,240.030792 
	C553.285583,239.406219 552.729919,238.250580 553.974731,236.128098 
	C554.418213,236.047073 554.861694,235.966064 555.922974,236.224579 
	C559.761719,236.541077 563.330627,238.820374 565.997925,235.134613 
	C579.728943,233.832626 593.460022,232.530624 607.709106,231.392517 
	C608.227234,231.556412 608.669739,231.583664 608.669739,231.583664 
	C608.669739,231.583664 608.987732,231.247238 608.987732,231.247223 
	C611.728271,230.912903 614.468811,230.578583 617.720703,230.411728 
	C618.231995,230.579208 618.673767,230.597656 618.673767,230.597656 
	C618.673767,230.597656 618.991760,230.262772 618.991760,230.262756 
	C621.749268,229.953171 624.506836,229.643600 627.834900,229.534943 
	C628.925171,229.593369 629.444885,229.450882 629.964600,229.308395 
	C632.229858,229.099060 634.495056,228.889740 637.172363,228.687714 
z"/>
<path fill="#408A8B" opacity="1.000000" stroke="none" 
	d="
M355.991791,260.074371 
	C343.602844,260.887482 331.213928,261.700592 318.602448,262.061584 
	C321.146271,261.405914 323.920563,261.274139 326.675690,260.968994 
	C328.082123,260.813202 330.300446,260.765381 330.703400,259.951599 
	C333.199249,254.910995 338.067719,255.076797 342.436249,253.876541 
	C346.041840,252.885910 349.498108,251.351944 353.482300,250.046875 
	C357.961884,250.022614 361.979767,250.010239 366.195801,250.253479 
	C367.268707,250.013443 368.143463,249.517807 369.478027,249.017822 
	C372.566620,249.005371 375.256287,249.322968 377.797791,248.848007 
	C379.018250,248.619904 379.958893,246.894211 381.026245,245.846725 
	C385.041229,245.621948 389.056213,245.397171 393.519073,245.422440 
	C393.966949,245.672485 393.995911,246.028397 393.992371,246.412033 
	C392.858521,251.435165 389.336304,251.161255 385.773743,250.786453 
	C383.981720,250.597916 382.192566,250.382645 380.117950,250.147217 
	C380.862244,253.545303 381.415161,256.069794 381.968109,258.594299 
	C380.586792,258.713226 379.205475,258.832153 377.292847,258.695862 
	C376.551666,258.217987 376.297852,258.071503 375.563599,257.999695 
	C372.911957,257.760040 370.668396,257.208832 368.492523,257.405701 
	C367.262299,257.516998 366.143341,258.857727 364.974274,259.644684 
	C362.611206,259.805481 360.248138,259.966278 357.347046,259.890808 
	C356.536621,259.794525 356.264191,259.934448 355.991791,260.074371 
z"/>
<path fill="#136F90" opacity="1.000000" stroke="none" 
	d="
M221.999390,255.000610 
	C221.911530,254.512497 221.968811,253.925034 221.713226,253.551758 
	C219.326950,250.066544 219.606644,247.359055 223.933014,245.151154 
	C224.000916,244.581665 223.997238,244.160339 223.997238,244.160339 
	C225.720718,244.103088 227.444183,244.045837 229.928406,243.977051 
	C230.899506,243.901489 231.109863,243.837463 231.320221,243.773422 
	C232.624969,243.793549 233.929718,243.813675 235.702087,244.059082 
	C236.444748,244.184494 236.719818,244.084625 236.994888,243.984741 
	C237.165390,243.962982 237.335892,243.941193 238.062042,244.249146 
	C243.060013,244.567780 247.502304,244.556686 251.944611,244.545593 
	C255.335983,244.635101 258.727356,244.724625 262.854614,245.178955 
	C270.367462,245.745453 277.144348,245.947128 283.682556,246.421875 
	C281.224182,247.131851 278.981354,247.476425 276.790253,248.026901 
	C273.361328,248.888367 268.675293,248.209900 268.528076,253.999695 
	C259.039246,254.332520 250.018631,254.664429 240.908096,254.600525 
	C235.722580,254.011780 230.627304,253.805603 225.529999,253.684586 
	C225.362930,253.680618 225.175278,254.543579 224.750824,255.005661 
	C224.504440,255.008896 224.011597,255.011597 223.676178,255.007782 
	C222.893631,255.002853 222.446518,255.001724 221.999390,255.000610 
z"/>
<path fill="#1A1E36" opacity="1.000000" stroke="none" 
	d="
M342.862793,179.999649 
	C342.861969,171.089508 342.861969,162.679245 342.861969,154.154205 
	C345.440613,154.154205 347.506561,154.154205 349.791351,154.154205 
	C349.791351,169.384979 349.791351,184.382507 349.791351,199.615692 
	C347.568878,199.615692 345.636353,199.615692 342.863617,199.615692 
	C342.863617,193.292343 342.863617,186.895935 342.862793,179.999649 
z"/>
<path fill="#97A665" opacity="1.000000" stroke="none" 
	d="
M553.526367,236.087326 
	C552.729919,238.250580 553.285583,239.406219 555.723145,240.030792 
	C556.899414,240.332214 557.892395,241.349258 558.983276,242.409317 
	C547.293701,244.177826 535.589233,245.579285 523.450317,246.542267 
	C523.341736,243.547653 523.667542,240.991531 523.993408,238.435410 
	C533.688232,237.639130 543.383118,236.842834 553.526367,236.087326 
z"/>
<path fill="#8BA162" opacity="1.000000" stroke="none" 
	d="
M523.586426,238.369141 
	C523.667542,240.991531 523.341736,243.547653 523.006714,246.494003 
	C521.232666,247.179306 519.467773,247.474396 517.230591,247.602997 
	C516.447876,247.296204 516.209473,247.387085 516.043030,247.709167 
	C509.965363,248.336853 503.887726,248.964523 497.401093,249.119827 
	C497.366913,245.915359 496.692841,243.978439 493.635651,243.206879 
	C492.307800,242.871750 491.185883,241.720673 489.970398,240.940186 
	C498.221222,240.271866 506.471680,239.599167 514.723022,238.937561 
	C517.540649,238.711670 520.360596,238.513626 523.586426,238.369141 
z"/>
<path fill="#97A665" opacity="1.000000" stroke="none" 
	d="
M352.893402,134.843781 
	C360.347198,130.542465 366.028534,124.659668 368.344818,116.215965 
	C369.553162,111.811066 372.025146,111.850555 375.373383,113.045593 
	C375.486511,122.660202 368.000305,133.617157 359.261505,137.190094 
	C357.026611,138.103851 355.108734,139.793015 352.289917,141.116333 
	C348.910187,140.889343 346.285736,140.671936 343.347229,140.428528 
	C343.570374,139.472641 343.808777,138.451279 344.047180,137.429932 
	C346.035370,136.909302 348.023560,136.388657 350.721558,135.884476 
	C351.918701,135.548553 352.406067,135.196167 352.893402,134.843781 
z"/>
<path fill="#4C9085" opacity="1.000000" stroke="none" 
	d="
M382.320068,258.672668 
	C381.415161,256.069794 380.862244,253.545303 380.117950,250.147217 
	C382.192566,250.382645 383.981720,250.597916 385.773743,250.786453 
	C389.336304,251.161255 392.858521,251.435165 394.189331,246.330627 
	C394.649292,245.726761 394.843079,245.524933 394.971191,245.260071 
	C398.010437,245.126282 401.049713,244.992493 404.580322,245.279678 
	C405.935577,246.592117 406.676361,247.668137 407.685730,248.341629 
	C411.200317,250.686691 411.846283,253.363708 408.980011,256.647125 
	C407.914307,256.780762 406.848633,256.914398 405.191559,256.750854 
	C403.729462,256.640778 402.858704,256.827911 401.987976,257.015076 
	C401.336456,257.100922 400.684906,257.186768 399.483154,257.186340 
	C398.621643,257.115570 398.350555,257.227905 398.119720,257.437134 
	C397.628265,257.530212 397.136780,257.623291 395.957947,257.462952 
	C393.180786,257.140106 391.091003,257.070648 388.934204,256.641357 
	C387.485443,255.856735 386.103638,255.431992 384.721863,255.007263 
	C384.624908,255.470352 384.527954,255.933441 384.431000,256.396545 
	C385.290466,256.600952 386.149933,256.805359 386.998260,257.295868 
	C386.978363,257.772644 386.969635,257.963318 386.960907,258.153992 
	C385.531281,258.353027 384.101685,258.552032 382.320068,258.672668 
z"/>
<path fill="#5C9581" opacity="1.000000" stroke="none" 
	d="
M409.419495,256.733398 
	C411.846283,253.363708 411.200317,250.686691 407.685730,248.341629 
	C406.676361,247.668137 405.935577,246.592117 405.030823,245.352966 
	C410.350861,244.707001 415.711731,244.408737 421.533997,244.186600 
	C424.117828,246.170090 426.133606,248.218979 428.404144,249.929794 
	C429.692902,250.900894 431.398895,251.318298 434.272339,252.580353 
	C431.698669,253.554398 430.607330,253.967438 429.276001,254.620514 
	C422.643646,255.513611 416.251312,256.166656 409.419495,256.733398 
z"/>
<path fill="#1F7A89" opacity="1.000000" stroke="none" 
	d="
M330.201691,124.370720 
	C332.467773,125.042305 329.416748,130.052124 334.593140,128.991241 
	C334.902588,129.469376 334.834717,129.947647 334.485382,130.929230 
	C334.070068,131.712189 334.051056,131.999466 334.146851,132.294388 
	C333.968048,136.238739 333.789215,140.183090 333.411804,144.674591 
	C333.088959,145.535446 333.165222,145.787109 333.441956,145.976715 
	C333.501984,146.736420 333.562012,147.496140 333.429535,148.731110 
	C333.103729,149.539337 333.188080,149.802078 333.490082,149.994598 
	C333.535034,151.733002 333.579987,153.471420 333.370544,155.892029 
	C333.081238,157.387360 333.046356,158.200470 333.011475,159.013611 
	C331.275879,160.371078 329.540283,161.728546 326.797913,163.873444 
	C327.587494,149.907700 325.032074,137.060532 330.201691,124.370720 
z"/>
<path fill="#799E64" opacity="1.000000" stroke="none" 
	d="
M489.507080,240.884186 
	C491.185883,241.720673 492.307800,242.871750 493.635651,243.206879 
	C496.692841,243.978439 497.366913,245.915359 496.994904,249.018036 
	C490.615479,249.938660 484.233246,250.488708 477.399445,250.964813 
	C475.621918,249.751938 473.943115,248.830261 473.070312,247.412430 
	C472.213989,246.021347 472.177216,244.125763 471.854980,242.163834 
	C477.634064,241.526779 483.338898,241.177490 489.507080,240.884186 
z"/>
<path fill="#1D2139" opacity="1.000000" stroke="none" 
	d="
M333.986023,182.014694 
	C333.984772,188.133926 333.984772,193.756134 333.984772,199.659225 
	C331.560150,199.659225 329.625580,199.659225 326.973450,199.659225 
	C326.973450,191.245422 326.615448,182.646057 327.244415,174.119492 
	C327.387909,172.174362 330.940704,170.480728 333.987244,167.701767 
	C333.987244,173.358856 333.987244,177.438263 333.986023,182.014694 
z"/>
<path fill="#408A8B" opacity="1.000000" stroke="none" 
	d="
M313.114624,128.941254 
	C315.654968,130.758926 318.551544,132.249222 320.620178,134.500366 
	C322.205322,136.225372 322.745209,138.910919 323.135773,141.522812 
	C315.092621,139.683640 309.543579,135.040131 304.929932,128.315643 
	C304.616089,124.450615 306.351318,123.689232 309.012238,123.990898 
	C309.012238,123.990898 309.000000,124.000000 308.999512,124.375473 
	C309.309235,127.190453 309.979279,129.276520 313.114624,128.941254 
z"/>
<path fill="#5C9581" opacity="1.000000" stroke="none" 
	d="
M308.956360,123.634354 
	C306.351318,123.689232 304.616089,124.450615 304.872009,127.983292 
	C299.826385,122.490257 298.288055,115.368744 298.206238,107.458519 
	C300.430511,107.001511 302.164856,106.998108 303.899170,106.994705 
	C305.566284,112.422401 307.233398,117.850105 308.956360,123.634354 
z"/>
<path fill="#6E9977" opacity="1.000000" stroke="none" 
	d="
M303.980133,106.587143 
	C302.164856,106.998108 300.430511,107.001511 298.260559,107.020088 
	C297.380615,98.960991 300.215637,91.860352 304.609467,84.927338 
	C305.417145,87.119499 305.941498,89.522697 306.876190,92.017441 
	C306.211426,96.799171 305.136261,101.489372 303.980133,106.587143 
z"/>
<path fill="#EAEAEB" opacity="1.000000" stroke="none" 
	d="
M431.744019,218.199280 
	C431.291779,216.224594 430.413818,213.415894 431.105347,212.953293 
	C432.782867,211.831085 435.190674,211.800552 437.304199,211.330139 
	C437.452484,211.964264 437.600800,212.598389 437.749084,213.232513 
	C436.332092,213.705673 434.915070,214.178818 432.282318,215.057907 
	C434.632202,216.874100 436.395172,218.236664 438.342438,219.741684 
	C439.596497,218.226089 440.622803,216.985794 442.478851,214.742661 
	C442.268494,217.766754 442.125671,219.819687 441.952576,222.308044 
	C437.714996,218.462234 434.913574,229.475006 430.012756,222.728821 
	C431.767273,222.224274 433.199677,221.812363 435.413452,221.175735 
	C433.918945,219.963181 432.975525,219.197784 431.744019,218.199280 
z"/>
<path fill="#1F7A89" opacity="1.000000" stroke="none" 
	d="
M365.997650,249.997864 
	C361.979767,250.010239 357.961884,250.022614 353.475708,250.029816 
	C353.007446,250.024628 353.000000,249.992233 353.000549,249.627960 
	C353.000732,248.537155 353.000397,247.810608 353.465698,247.056870 
	C358.945496,246.709381 363.959717,246.389099 368.973907,246.068832 
	C372.685822,245.944351 376.397736,245.819885 380.567932,245.771072 
	C379.958893,246.894211 379.018250,248.619904 377.797791,248.848007 
	C375.256287,249.322968 372.566620,249.005371 369.137512,249.011292 
	C367.557343,249.338684 366.777496,249.668274 365.997650,249.997864 
z"/>
<path fill="#EAEAEB" opacity="1.000000" stroke="none" 
	d="
M403.705170,221.038040 
	C400.767212,223.155884 397.829254,225.273743 394.416077,227.734161 
	C391.683502,224.236298 393.346283,220.067322 393.340240,216.221130 
	C393.339539,215.777390 395.236633,215.330658 396.706482,214.687149 
	C396.706482,218.091125 396.706482,220.591660 396.706482,223.877838 
	C398.436646,222.259888 399.475952,221.287964 400.510895,220.320175 
	C399.797150,218.761520 399.092987,217.223785 398.125488,215.111008 
	C400.236450,216.326996 401.671143,217.153458 403.482361,218.357452 
	C403.807648,219.502686 403.756409,220.270355 403.705170,221.038040 
z"/>
<path fill="#4C9085" opacity="1.000000" stroke="none" 
	d="
M368.602356,245.981598 
	C363.959717,246.389099 358.945496,246.709381 352.997314,247.032257 
	C336.397308,247.013504 320.731262,246.992188 305.042969,246.718918 
	C305.012787,246.298553 305.004791,246.130127 304.996826,245.961716 
	C309.284729,245.946793 313.572632,245.921738 317.860535,245.918701 
	C334.650635,245.906799 351.440704,245.901886 368.602356,245.981598 
z"/>
<path fill="#EAEAEB" opacity="1.000000" stroke="none" 
	d="
M363.894470,215.918243 
	C367.132751,215.958450 369.510925,217.002319 368.512604,220.182144 
	C367.938904,222.009399 365.798065,223.344604 364.362701,224.901306 
	C362.922394,223.499313 360.833069,222.339401 360.198151,220.637024 
	C359.308014,218.250504 360.244568,215.998215 363.894470,215.918243 
z"/>
<path fill="#EAEAEB" opacity="1.000000" stroke="none" 
	d="
M290.906708,224.122696 
	C287.047943,221.771225 286.901245,217.408997 290.502899,215.270386 
	C292.261322,214.226242 293.808990,212.827133 296.467133,210.823639 
	C296.710938,215.069656 296.938904,219.039078 297.185730,223.337601 
	C295.737518,223.153824 294.789734,223.033554 294.224457,222.961823 
	C293.814453,220.593628 293.449280,218.484360 293.084106,216.375092 
	C292.411469,216.416138 291.738800,216.457199 291.066162,216.498245 
	C291.066162,218.676697 291.066162,220.855148 291.038788,223.513763 
	C291.011414,223.993942 290.906708,224.122696 290.906708,224.122696 
z"/>
<path fill="#75757B" opacity="1.000000" stroke="none" 
	d="
M345.213989,224.347595 
	C340.305969,223.594986 338.364624,220.727829 340.508545,217.473434 
	C341.240082,216.362961 343.097443,215.613297 344.509003,215.491180 
	C345.222290,215.429474 346.088531,217.135376 346.885620,218.042053 
	C345.767212,218.832779 344.659302,219.639038 343.524597,220.405670 
	C343.135956,220.668228 342.680237,220.831451 340.855255,221.727158 
	C343.445923,222.291229 344.800262,222.586121 346.154602,222.880997 
	C345.949707,223.352402 345.744843,223.823807 345.213989,224.347595 
z"/>
<path fill="#B7B976" opacity="1.000000" stroke="none" 
	d="
M343.655487,137.330658 
	C343.808777,138.451279 343.570374,139.472641 343.347229,140.428528 
	C346.285736,140.671936 348.910187,140.889343 351.951721,141.192322 
	C348.216370,142.403625 344.063934,143.529358 339.600708,144.739334 
	C338.575958,140.025467 338.285797,137.069046 343.655487,137.330658 
z"/>
<path fill="#EAEAEB" opacity="1.000000" stroke="none" 
	d="
M332.298462,222.786224 
	C335.963806,222.315491 334.700897,219.524826 334.886627,217.372757 
	C335.093414,214.976852 335.416656,212.591019 335.689209,210.200790 
	C336.275726,210.224228 336.862213,210.247665 337.448730,210.271088 
	C337.448730,214.561447 337.448730,218.851807 337.448730,223.825668 
	C335.866669,223.825668 333.955872,223.825668 332.047974,223.394699 
	C332.050903,222.963730 332.298462,222.786224 332.298462,222.786224 
z"/>
<path fill="#75757B" opacity="1.000000" stroke="none" 
	d="
M403.812378,221.334869 
	C403.756409,220.270355 403.807648,219.502686 403.831055,218.350769 
	C405.665100,217.210449 407.486725,216.259247 409.422241,215.859909 
	C409.817871,215.778275 410.989502,217.726105 411.118134,218.819077 
	C411.181549,219.358047 409.774139,220.359467 408.869171,220.659119 
	C407.285583,221.183502 405.576233,221.328049 403.812378,221.334869 
z"/>
<path fill="#22273D" opacity="1.000000" stroke="none" 
	d="
M303.431671,218.140930 
	C303.665924,217.011322 303.893677,216.257492 304.121429,215.503677 
	C304.337158,215.506714 304.552856,215.509735 304.768585,215.512772 
	C304.919189,217.110245 304.576202,219.030624 305.353210,220.218262 
	C306.203064,221.517227 308.011932,222.327286 309.562775,222.955658 
	C310.122589,223.182495 311.884338,222.038055 311.843445,221.904968 
	C311.444489,220.607391 310.779602,219.391571 310.184204,218.139343 
	C310.660858,218.104263 311.612366,218.034225 312.831543,217.944504 
	C312.831543,219.899750 312.831543,221.636826 312.828491,223.375763 
	C306.450928,224.817841 305.022858,224.079391 303.431671,218.140930 
z"/>
<path fill="#75757B" opacity="1.000000" stroke="none" 
	d="
M484.944702,222.596893 
	C484.911438,220.180359 484.911438,218.198883 484.911438,215.444565 
	C487.283722,215.655807 490.436127,215.155823 491.027283,216.161469 
	C492.065369,217.927399 491.535370,220.615143 490.562683,223.018188 
	C490.466278,222.680756 490.385834,222.337769 490.270721,222.006851 
	C489.695953,220.354340 489.112061,218.705002 488.531372,217.054550 
	C487.981537,218.595215 487.547821,220.193420 486.826752,221.649292 
	C486.522064,222.264496 485.612549,222.580154 484.944702,222.596893 
z"/>
<path fill="#75757B" opacity="1.000000" stroke="none" 
	d="
M467.152100,217.315887 
	C467.034302,219.715988 467.158813,221.863388 467.279572,223.945511 
	C464.451843,223.139359 463.400024,217.078217 466.200775,212.592621 
	C466.708191,214.492935 467.051331,215.778061 467.152100,217.315887 
z"/>
<path fill="#4C9085" opacity="1.000000" stroke="none" 
	d="
M283.921265,246.148804 
	C277.144348,245.947128 270.367462,245.745453 263.292664,245.252930 
	C270.739044,245.039459 278.483307,245.116852 286.741882,245.484680 
	C287.256195,245.775131 287.272034,246.086395 286.848938,246.072189 
	C285.590973,246.088257 284.756134,246.118530 283.921265,246.148804 
z"/>
<path fill="#75757B" opacity="1.000000" stroke="none" 
	d="
M452.122620,217.069580 
	C452.120270,219.620071 452.120270,221.710419 452.120270,223.800751 
	C451.693054,223.807755 451.265839,223.814758 450.838623,223.821762 
	C450.838623,219.500519 450.838623,215.179276 450.838623,210.858032 
	C451.267395,210.822678 451.696198,210.787338 452.124969,210.751999 
	C452.124969,212.704468 452.124969,214.656952 452.122620,217.069580 
z"/>
<path fill="#408A8B" opacity="1.000000" stroke="none" 
	d="
M182.621170,240.910980 
	C182.227875,241.353729 181.463226,241.639557 180.039032,241.682297 
	C174.310959,241.265915 169.242401,241.092621 164.129578,240.687256 
	C163.951599,240.162537 163.892685,239.855560 163.908554,239.534241 
	C170.022308,239.940857 176.136063,240.347473 182.621170,240.910980 
z"/>
<path fill="#EAEAEB" opacity="1.000000" stroke="none" 
	d="
M474.904266,223.258438 
	C474.662415,220.771545 474.662415,218.529602 474.662415,216.287659 
	C475.185425,216.276291 475.708435,216.264908 476.231445,216.253525 
	C477.049316,219.053116 477.867157,221.852707 478.808868,225.076370 
	C477.641235,224.574921 476.393677,224.039154 474.904266,223.258438 
z"/>
<path fill="#0A597A" opacity="1.000000" stroke="none" 
	d="
M77.662766,230.061234 
	C74.607277,233.277252 68.605125,232.706177 66.257095,228.829010 
	C67.163826,228.652924 67.797737,228.676590 68.992142,229.138702 
	C71.196625,229.671448 72.840622,229.765747 74.484612,229.860046 
	C75.430290,229.890060 76.375977,229.920059 77.662766,230.061234 
z"/>
<path fill="#136F90" opacity="1.000000" stroke="none" 
	d="
M287.272034,246.086395 
	C287.272034,246.086395 287.256195,245.775131 287.198242,245.630585 
	C292.793579,245.586914 298.446838,245.687790 304.548462,245.875183 
	C305.004791,246.130127 305.012787,246.298553 304.568420,246.728760 
	C298.501434,246.689163 292.886719,246.387772 287.272034,246.086395 
z"/>
<path fill="#EAEAEB" opacity="1.000000" stroke="none" 
	d="
M211.893127,224.138748 
	C206.845612,221.408722 206.646347,218.961380 211.303131,215.310455 
	C211.525558,217.970886 211.741379,220.552155 211.980743,223.567902 
	C212.004288,224.002365 211.893127,224.138748 211.893127,224.138748 
z"/>
<path fill="#EAEAEB" opacity="1.000000" stroke="none" 
	d="
M214.827911,217.063004 
	C214.203232,216.433655 213.844254,215.977249 213.485275,215.520844 
	C213.875809,215.201889 214.266357,214.882919 214.656906,214.563965 
	C215.729614,216.037567 217.324417,217.391006 217.700485,219.024948 
	C217.973419,220.210846 216.633102,221.768036 216.012131,223.159668 
	C215.606979,223.015762 215.201813,222.871872 214.796646,222.727966 
	C214.895630,220.897293 214.994614,219.066620 214.827911,217.063004 
z"/>
<path fill="#97A665" opacity="1.000000" stroke="none" 
	d="
M565.557617,235.074432 
	C563.330627,238.820374 559.761719,236.541077 556.259766,236.269104 
	C559.024963,235.654160 562.071106,235.334213 565.557617,235.074432 
z"/>
<path fill="#EAEAEB" opacity="1.000000" stroke="none" 
	d="
M483.037140,220.126648 
	C482.570221,221.366104 482.108154,222.210571 481.646057,223.055023 
	C481.201752,222.968399 480.757416,222.881775 480.313080,222.795135 
	C480.175903,220.631866 480.038696,218.468597 479.901489,216.305328 
	C480.220184,216.146255 480.538879,215.987183 480.857574,215.828094 
	C481.585693,217.129272 482.313843,218.430450 483.037140,220.126648 
z"/>
<path fill="#EAEAEB" opacity="1.000000" stroke="none" 
	d="
M331.934021,223.061401 
	C327.837341,219.999680 327.887238,219.106171 332.172485,216.469513 
	C332.172485,218.318527 332.172485,220.178558 332.235474,222.412415 
	C332.298462,222.786224 332.050903,222.963730 331.934021,223.061401 
z"/>
<path fill="#0D6486" opacity="1.000000" stroke="none" 
	d="
M193.063110,242.892822 
	C190.542450,244.084320 187.978638,245.631500 186.016357,241.660797 
	C188.073227,241.404770 190.151901,241.528503 192.619797,242.014984 
	C193.027039,242.549423 193.045074,242.721115 193.063110,242.892822 
z"/>
<path fill="#408A8B" opacity="1.000000" stroke="none" 
	d="
M215.695953,243.782593 
	C213.946854,243.978455 211.919220,243.944214 209.251694,243.821625 
	C208.377060,243.368942 208.142303,243.004593 207.907562,242.640259 
	C210.410843,242.944336 212.914124,243.248428 215.695953,243.782593 
z"/>
<path fill="#408A8B" opacity="1.000000" stroke="none" 
	d="
M193.483978,242.906845 
	C193.045074,242.721115 193.027039,242.549423 192.999298,242.118958 
	C196.392288,241.935013 199.794998,242.009842 203.488403,242.405334 
	C203.551132,242.885513 203.304352,243.006683 203.038727,243.089478 
	C202.281021,243.056656 201.523315,243.023834 200.131714,242.988007 
	C199.327927,242.988419 199.158051,242.991821 198.988190,242.995209 
	C197.293747,242.970428 195.599304,242.945648 193.483978,242.906845 
z"/>
<path fill="#4C9085" opacity="1.000000" stroke="none" 
	d="
M251.510620,244.381317 
	C247.502304,244.556686 243.060013,244.567780 238.313660,244.305405 
	C242.365295,244.093628 246.720978,244.155319 251.510620,244.381317 
z"/>
<path fill="#0D6486" opacity="1.000000" stroke="none" 
	d="
M203.265381,243.337830 
	C203.304352,243.006683 203.551132,242.885513 203.895004,242.554565 
	C205.059372,242.390305 206.107834,242.397491 207.531921,242.522461 
	C208.142303,243.004593 208.377060,243.368942 208.816635,243.824692 
	C208.332382,244.260880 207.585953,244.970078 206.966461,244.872604 
	C205.770432,244.684418 204.646088,244.040909 203.265381,243.337830 
z"/>
<path fill="#EAEAEB" opacity="1.000000" stroke="none" 
	d="
M447.018097,215.976868 
	C448.386932,217.812988 450.406036,219.573715 447.351318,221.940948 
	C447.000000,222.000000 446.997559,221.996948 446.997559,221.996948 
	C446.983978,220.242615 446.970367,218.488297 446.977539,216.367477 
	C446.998322,216.000992 447.018097,215.976868 447.018097,215.976868 
z"/>
<path fill="#5C9581" opacity="1.000000" stroke="none" 
	d="
M312.987976,128.639481 
	C309.979279,129.276520 309.309235,127.190453 309.004425,124.369522 
	C310.293640,125.437958 311.577454,126.887833 312.987976,128.639481 
z"/>
<path fill="#0D5F80" opacity="1.000000" stroke="none" 
	d="
M163.513519,239.436707 
	C163.892685,239.855560 163.951599,240.162537 163.727219,240.715729 
	C161.927338,240.678146 160.485519,240.379990 159.061462,239.863800 
	C159.079208,239.645767 159.058151,239.208755 159.058151,239.208740 
	C160.411606,239.252213 161.765045,239.295685 163.513519,239.436707 
z"/>
<path fill="#0D5F80" opacity="1.000000" stroke="none" 
	d="
M150.489670,238.635284 
	C151.116272,238.653336 151.742859,238.671371 152.700287,239.028351 
	C153.056839,239.536240 153.082565,239.705154 152.880554,240.158920 
	C150.770111,239.972946 148.887421,239.502151 147.444427,239.018829 
	C148.752640,238.882660 149.621155,238.758972 150.489670,238.635284 
z"/>
<path fill="#408A8B" opacity="1.000000" stroke="none" 
	d="
M153.108276,239.874084 
	C153.082565,239.705154 153.056839,239.536240 153.004852,239.112366 
	C154.779419,238.889679 156.580276,238.921921 158.719635,239.081467 
	C159.058151,239.208755 159.079208,239.645767 158.633606,239.827927 
	C156.494751,239.964752 154.801514,239.919418 153.108276,239.874084 
z"/>
<path fill="#0D6486" opacity="1.000000" stroke="none" 
	d="
M223.556137,244.092987 
	C223.997238,244.160339 224.000916,244.581665 224.001373,244.792358 
	C221.526138,244.878555 219.050430,244.754059 216.280258,244.362457 
	C218.362198,244.072113 220.738617,244.048859 223.556137,244.092987 
z"/>
<path fill="#6E9977" opacity="1.000000" stroke="none" 
	d="
M356.359894,217.868866 
	C356.652893,218.832047 356.759949,220.065933 356.866974,221.299835 
	C356.635986,221.309494 356.404968,221.319138 356.173950,221.328796 
	C356.173950,220.265732 356.173950,219.202667 356.359894,217.868866 
z"/>
<path fill="#0D5F80" opacity="1.000000" stroke="none" 
	d="
M74.155647,229.613892 
	C72.840622,229.765747 71.196625,229.671448 69.280914,229.281357 
	C70.615028,229.112961 72.220856,229.240341 74.155647,229.613892 
z"/>
<path fill="#408A8B" opacity="1.000000" stroke="none" 
	d="
M150.146271,238.420044 
	C149.621155,238.758972 148.752640,238.882660 147.121841,238.993683 
	C145.929794,238.961349 145.500031,238.941666 145.070267,238.921967 
	C145.070267,238.921967 145.030975,238.486847 145.007675,238.269653 
	C146.590530,238.103241 148.196701,238.154037 150.146271,238.420044 
z"/>
<path fill="#5C9581" opacity="1.000000" stroke="none" 
	d="
M333.260620,158.801575 
	C333.046356,158.200470 333.081238,157.387360 333.285034,156.319595 
	C333.472534,156.906494 333.491180,157.748016 333.260620,158.801575 
z"/>
<path fill="#EAEAEB" opacity="1.000000" stroke="none" 
	d="
M447.000977,222.001373 
	C446.639526,222.265366 446.277100,222.527985 445.914673,222.790619 
	C445.822083,222.660202 445.729492,222.529770 445.636902,222.399353 
	C445.922699,222.269516 446.208466,222.139664 446.745911,222.003387 
	C446.997559,221.996948 447.000000,222.000000 447.000977,222.001373 
z"/>
<path fill="#EAEAEB" opacity="1.000000" stroke="none" 
	d="
M212.062714,223.936615 
	C212.551895,224.062180 212.982651,224.253494 213.413391,224.444824 
	C213.007660,224.478012 212.601913,224.511185 212.044647,224.341553 
	C211.893127,224.138748 212.004288,224.002365 212.062714,223.936615 
z"/>
<path fill="#EAEAEB" opacity="1.000000" stroke="none" 
	d="
M291.066711,223.932083 
	C291.554321,224.059662 291.986633,224.249084 292.418915,224.438507 
	C292.016388,224.467743 291.613861,224.496979 291.059021,224.324463 
	C290.906708,224.122696 291.011414,223.993942 291.066711,223.932083 
z"/>
<path fill="#EAEAEB" opacity="1.000000" stroke="none" 
	d="
M443.663513,224.625366 
	C443.812225,224.434021 444.078461,224.402863 444.344696,224.371689 
	C444.156799,224.509644 443.968933,224.647583 443.663513,224.625366 
z"/>
<path fill="#B7B976" opacity="1.000000" stroke="none" 
	d="
M352.591125,134.863571 
	C352.406067,135.196167 351.918701,135.548553 351.106079,135.855606 
	C351.283478,135.501312 351.786163,135.192337 352.591125,134.863571 
z"/>
<path fill="#B7B976" opacity="1.000000" stroke="none" 
	d="
M629.647095,229.227814 
	C629.444885,229.450882 628.925171,229.593369 628.239014,229.585327 
	C628.491638,229.338959 628.910645,229.243103 629.647095,229.227814 
z"/>
<path fill="#0A597A" opacity="1.000000" stroke="none" 
	d="
M82.852211,230.831635 
	C82.679718,231.225037 82.338570,231.490692 81.997421,231.756363 
	C81.962738,231.523270 81.928055,231.290192 82.082962,230.930847 
	C82.272560,230.804581 82.683556,230.703888 82.852211,230.831635 
z"/>
<path fill="#B7B976" opacity="1.000000" stroke="none" 
	d="
M618.744873,230.217133 
	C618.991760,230.262772 618.673767,230.597656 618.673767,230.597656 
	C618.673767,230.597656 618.231995,230.579208 618.128662,230.460175 
	C618.182861,230.284592 618.340454,230.228043 618.744873,230.217133 
z"/>
<path fill="#B7B976" opacity="1.000000" stroke="none" 
	d="
M608.742493,231.197586 
	C608.987732,231.247238 608.669739,231.583664 608.669739,231.583664 
	C608.669739,231.583664 608.227234,231.556412 608.125916,231.434326 
	C608.182129,231.257492 608.339722,231.202713 608.742493,231.197586 
z"/>
<path fill="#EAEAEB" opacity="1.000000" stroke="none" 
	d="
M446.986145,216.010986 
	C446.853302,215.866547 446.732635,215.712128 446.612000,215.557709 
	C446.705963,215.603867 446.799957,215.650024 446.955994,215.836533 
	C447.018097,215.976868 446.998322,216.000992 446.986145,216.010986 
z"/>
<path fill="#4C9085" opacity="1.000000" stroke="none" 
	d="
M231.169418,243.636749 
	C231.109863,243.837463 230.899506,243.901489 230.360107,243.963577 
	C230.360260,243.807770 230.689438,243.653915 231.169418,243.636749 
z"/>
<path fill="#2C8C99" opacity="1.000000" stroke="none" 
	d="
M334.324951,132.141205 
	C334.051056,131.999466 334.070068,131.712189 334.345581,131.265625 
	C334.688324,131.391647 334.693573,131.688095 334.324951,132.141205 
z"/>
<path fill="#4C9085" opacity="1.000000" stroke="none" 
	d="
M236.750809,243.892456 
	C236.719818,244.084625 236.444748,244.184494 236.089478,244.121140 
	C236.175079,243.905350 236.340897,243.852768 236.750809,243.892456 
z"/>
<path fill="#5C9581" opacity="1.000000" stroke="none" 
	d="
M394.715210,245.198151 
	C394.843079,245.524933 394.649292,245.726761 394.192871,245.946991 
	C393.995911,246.028397 393.966949,245.672485 393.965485,245.493988 
	C394.129089,245.255753 394.294189,245.195999 394.715210,245.198151 
z"/>
<path fill="#5C9581" opacity="1.000000" stroke="none" 
	d="
M333.546906,145.740692 
	C333.165222,145.787109 333.088959,145.535446 333.325256,145.128204 
	C333.508789,145.191345 333.580322,145.347992 333.546906,145.740692 
z"/>
<path fill="#5C9581" opacity="1.000000" stroke="none" 
	d="
M333.588409,149.746353 
	C333.188080,149.802078 333.103729,149.539337 333.355896,149.107178 
	C333.545410,149.171341 333.616089,149.334717 333.588409,149.746353 
z"/>
<path fill="#0A5C72" opacity="1.000000" stroke="none" 
	d="
M33.717075,251.291626 
	C42.525581,253.008087 51.684261,251.595566 59.772285,256.480499 
	C62.123245,257.900452 65.939713,256.893951 69.898529,257.040253 
	C73.308800,258.507721 76.207176,259.578339 78.421143,261.455933 
	C80.934906,263.587799 82.836342,266.441650 84.535179,268.993225 
	C81.590523,269.007599 79.112854,268.950378 76.639130,269.024689 
	C69.772842,269.230865 62.908192,269.491821 56.042896,269.731140 
	C53.963482,269.710083 51.884064,269.689056 49.387810,269.506836 
	C46.217632,268.686493 43.449059,268.083862 40.716457,267.347687 
	C38.968281,266.876740 37.273228,266.208588 35.233532,265.520630 
	C35.755447,264.224762 36.213604,263.087189 36.990501,261.158234 
	C33.552361,260.064514 30.117432,259.307770 27.016632,257.843475 
	C25.470873,257.113525 24.536707,255.088425 23.162388,253.324585 
	C26.476952,252.527756 29.955019,252.055511 33.717075,251.291626 
z"/>
<path fill="#176E82" opacity="1.000000" stroke="none" 
	d="
M124.002243,256.002930 
	C125.391182,256.002686 126.780128,256.002441 129.039032,256.002502 
	C136.577850,256.002838 143.249939,255.873062 149.914642,256.039398 
	C156.612366,256.206543 163.302750,256.668518 170.054535,257.350464 
	C178.211731,260.838715 186.178986,264.543701 195.456009,262.791901 
	C194.834351,265.056671 194.421204,266.561798 194.008057,268.066925 
	C191.885178,268.251251 189.762299,268.435577 186.902832,268.356689 
	C177.612350,268.072815 169.058075,268.007385 160.505035,268.082977 
	C159.317108,268.093445 158.135330,268.799591 156.950714,269.183746 
	C156.031509,269.256989 155.112289,269.330261 153.355988,269.223846 
	C147.998215,268.993042 143.477570,268.941895 138.972916,268.499634 
	C139.199127,265.538116 138.822617,263.414185 135.549789,263.313416 
	C132.963608,263.233765 130.354065,263.268768 127.800407,262.919830 
	C123.425735,262.322052 122.535927,260.552643 124.002243,256.002930 
z"/>
<path fill="#1F7A89" opacity="1.000000" stroke="none" 
	d="
M224.011597,255.011597 
	C224.011597,255.011597 224.504440,255.008896 225.218018,255.006149 
	C230.953751,255.001053 235.975891,254.998688 240.998032,254.996338 
	C250.018631,254.664429 259.039246,254.332520 268.968506,254.000793 
	C276.258667,253.678024 282.640228,253.355057 288.957397,253.380325 
	C286.575287,255.248978 284.257477,256.769379 282.068817,258.205109 
	C283.202301,260.057678 284.094940,261.516663 284.575928,262.982422 
	C282.418854,263.385834 280.673462,263.782471 278.928040,264.179108 
	C277.495850,264.357208 276.063690,264.535309 273.935974,264.426697 
	C267.807251,264.477966 262.374084,264.815918 256.940887,265.153900 
	C255.225433,265.334717 253.509995,265.515533 251.034363,265.429260 
	C247.506943,265.106873 244.739685,265.051605 241.511002,265.000214 
	C237.032913,265.003143 233.016251,265.002197 228.996094,264.633728 
	C228.077423,262.758881 227.099747,261.285187 226.264786,259.734619 
	C225.438751,258.200653 224.756760,256.589111 224.011597,255.011597 
z"/>
<path fill="#2D838A" opacity="1.000000" stroke="none" 
	d="
M284.987579,262.975616 
	C284.094940,261.516663 283.202301,260.057678 282.068817,258.205109 
	C284.257477,256.769379 286.575287,255.248978 289.422302,253.374146 
	C310.967712,252.010574 331.983856,251.001404 353.000000,249.992233 
	C353.000000,249.992233 353.007446,250.024628 353.014008,250.041687 
	C349.498108,251.351944 346.041840,252.885910 342.436249,253.876541 
	C338.067719,255.076797 333.199249,254.910995 330.703400,259.951599 
	C330.300446,260.765381 328.082123,260.813202 326.675690,260.968994 
	C323.920563,261.274139 321.146271,261.405914 318.201416,261.921631 
	C316.927612,262.388092 315.832275,262.542389 314.078674,262.452301 
	C312.290039,262.395844 311.159760,262.583771 310.029449,262.771729 
	C309.270020,262.843628 308.510620,262.915527 307.277283,262.770111 
	C306.535217,262.664368 306.267059,262.775940 305.998932,262.887543 
	C305.246338,262.963287 304.493774,263.039032 303.113586,262.770203 
	C300.312775,262.768219 298.139557,263.110809 295.966339,263.453430 
	C294.573761,263.577454 293.181183,263.701477 291.210693,263.580719 
	C290.094910,263.489136 289.557007,263.642303 289.019104,263.795471 
	C288.262665,263.870514 287.506195,263.945526 286.257019,263.748077 
	C285.552521,263.235748 285.293610,263.069092 284.987579,262.975616 
z"/>
<path fill="#157287" opacity="1.000000" stroke="none" 
	d="
M223.676178,255.007782 
	C224.756760,256.589111 225.438751,258.200653 226.264786,259.734619 
	C227.099747,261.285187 228.077423,262.758881 228.759247,264.905884 
	C224.198975,263.508423 220.026962,265.433136 215.769516,265.921051 
	C213.725403,266.155334 211.192932,266.216858 209.567749,265.228455 
	C205.221268,262.584961 201.634567,263.260193 198.996078,267.932831 
	C197.605652,268.042694 196.215210,268.152588 194.416412,268.164703 
	C194.421204,266.561798 194.834351,265.056671 195.456009,262.791901 
	C186.178986,264.543701 178.211731,260.838715 170.410919,257.194946 
	C173.806473,256.459503 176.903854,256.228821 180.001221,255.998154 
	C193.693573,255.665634 207.385925,255.333115 221.538834,255.000610 
	C222.446518,255.001724 222.893631,255.002853 223.676178,255.007782 
z"/>
<path fill="#2D838A" opacity="1.000000" stroke="none" 
	d="
M138.956909,268.890808 
	C143.477570,268.941895 147.998215,268.993042 153.023911,269.118347 
	C143.601212,269.512390 133.674469,270.062531 123.745537,270.105225 
	C101.474709,270.201050 79.202797,270.044678 56.487114,269.861053 
	C62.908192,269.491821 69.772842,269.230865 76.639130,269.024689 
	C79.112854,268.950378 81.590523,269.007599 85.003235,269.007507 
	C101.953812,268.990082 117.967537,268.969940 134.362122,268.966583 
	C135.504959,268.961761 136.266968,268.940216 137.350677,268.927704 
	C138.100571,268.921417 138.528732,268.906097 138.956909,268.890808 
z"/>
<path fill="#176E82" opacity="1.000000" stroke="none" 
	d="
M199.459900,268.008942 
	C201.634567,263.260193 205.221268,262.584961 209.567749,265.228455 
	C211.192932,266.216858 213.725403,266.155334 215.769516,265.921051 
	C220.026962,265.433136 224.198975,263.508423 228.762756,265.273376 
	C233.016251,265.002197 237.032913,265.003143 241.506409,265.221802 
	C241.963257,265.439484 241.968140,265.882629 241.968140,265.882629 
	C227.953339,266.616760 213.938538,267.350922 199.459900,268.008942 
z"/>
<path fill="#2D838A" opacity="1.000000" stroke="none" 
	d="
M157.324005,269.344421 
	C158.135330,268.799591 159.317108,268.093445 160.505035,268.082977 
	C169.058075,268.007385 177.612350,268.072815 186.516632,268.280273 
	C177.143799,268.813019 167.420547,269.159058 157.324005,269.344421 
z"/>
<path fill="#4C9085" opacity="1.000000" stroke="none" 
	d="
M365.405853,259.728821 
	C366.143341,258.857727 367.262299,257.516998 368.492523,257.405701 
	C370.668396,257.208832 372.911957,257.760040 375.561432,258.214783 
	C375.995697,258.431396 375.994049,258.861633 375.994049,258.861633 
	C372.608521,259.178741 369.222961,259.495850 365.405853,259.728821 
z"/>
<path fill="#408A8B" opacity="1.000000" stroke="none" 
	d="
M257.344513,265.308716 
	C262.374084,264.815918 267.807251,264.477966 273.583710,264.350800 
	C268.534027,264.862213 263.141083,265.162872 257.344513,265.308716 
z"/>
<path fill="#97A665" opacity="1.000000" stroke="none" 
	d="
M561.424377,242.760223 
	C564.518066,242.154449 568.026672,241.604507 572.035889,241.067398 
	C568.970764,241.658829 565.405029,242.237427 561.424377,242.760223 
z"/>
<path fill="#408A8B" opacity="1.000000" stroke="none" 
	d="
M296.366058,263.545654 
	C298.139557,263.110809 300.312775,262.768219 302.740265,262.697388 
	C300.918274,263.192047 298.842041,263.415009 296.366058,263.545654 
z"/>
<path fill="#5C9581" opacity="1.000000" stroke="none" 
	d="
M387.271790,258.283508 
	C386.969635,257.963318 386.978363,257.772644 387.330109,257.294556 
	C388.115814,257.005157 388.558502,257.003174 389.001221,257.001221 
	C391.091003,257.070648 393.180786,257.140106 395.583008,257.416260 
	C393.124542,257.886322 390.353607,258.149689 387.271790,258.283508 
z"/>
<path fill="#408A8B" opacity="1.000000" stroke="none" 
	d="
M284.575928,262.982422 
	C285.293610,263.069092 285.552521,263.235748 285.880798,263.677429 
	C283.846252,264.063110 281.695160,264.246979 279.236084,264.304962 
	C280.673462,263.782471 282.418854,263.385834 284.575928,262.982422 
z"/>
<path fill="#408A8B" opacity="1.000000" stroke="none" 
	d="
M242.413452,265.967163 
	C241.968140,265.882629 241.963257,265.439484 241.967850,265.217896 
	C244.739685,265.051605 247.506943,265.106873 250.602875,265.372559 
	C248.240631,265.739197 245.549683,265.895447 242.413452,265.967163 
z"/>
<path fill="#B7B976" opacity="1.000000" stroke="none" 
	d="
M635.234497,233.402451 
	C635.821777,232.971725 636.707825,232.690582 637.773193,232.626022 
	C637.146057,233.079086 636.339661,233.315567 635.234497,233.402451 
z"/>
<path fill="#5C9581" opacity="1.000000" stroke="none" 
	d="
M402.216187,257.150208 
	C402.858704,256.827911 403.729462,256.640778 404.790649,256.693909 
	C404.135529,257.051239 403.289948,257.168304 402.216187,257.150208 
z"/>
<path fill="#408A8B" opacity="1.000000" stroke="none" 
	d="
M310.415619,262.848297 
	C311.159760,262.583771 312.290039,262.395844 313.664215,262.390564 
	C312.872650,262.690460 311.837219,262.807648 310.415619,262.848297 
z"/>
<path fill="#408A8B" opacity="1.000000" stroke="none" 
	d="
M289.342499,263.873535 
	C289.557007,263.642303 290.094910,263.489136 290.794006,263.514099 
	C290.525421,263.778717 290.095673,263.865143 289.342499,263.873535 
z"/>
<path fill="#5C9581" opacity="1.000000" stroke="none" 
	d="
M376.247803,258.916443 
	C375.994049,258.861633 375.995697,258.431396 375.997864,258.216309 
	C376.297852,258.071503 376.551666,258.217987 376.879486,258.629089 
	C376.832153,258.868744 376.666870,258.919983 376.247803,258.916443 
z"/>
<path fill="#408A8B" opacity="1.000000" stroke="none" 
	d="
M306.250793,262.954468 
	C306.267059,262.775940 306.535217,262.664368 306.899292,262.702087 
	C306.831085,262.908051 306.666870,262.964752 306.250793,262.954468 
z"/>
<path fill="#4C9085" opacity="1.000000" stroke="none" 
	d="
M356.250488,260.122314 
	C356.264191,259.934448 356.536621,259.794525 356.906433,259.822632 
	C356.838928,260.050507 356.674072,260.110382 356.250488,260.122314 
z"/>
<path fill="#B7B976" opacity="1.000000" stroke="none" 
	d="
M625.253174,234.797119 
	C625.162476,234.412079 625.414307,234.295898 625.866211,234.527618 
	C625.817932,234.707108 625.661072,234.770615 625.253174,234.797119 
z"/>
<path fill="#5C9581" opacity="1.000000" stroke="none" 
	d="
M398.344238,257.522888 
	C398.350555,257.227905 398.621643,257.115570 399.159241,257.120972 
	C399.188477,257.429169 398.916199,257.584747 398.344238,257.522888 
z"/>
<path fill="#B7B976" opacity="1.000000" stroke="none" 
	d="
M620.256104,235.823898 
	C620.163513,235.435516 620.414734,235.316116 620.866943,235.548691 
	C620.818665,235.730698 620.662659,235.794769 620.256104,235.823898 
z"/>
<path fill="#97A665" opacity="1.000000" stroke="none" 
	d="
M516.271240,247.765518 
	C516.209473,247.387085 516.447876,247.296204 516.851196,247.552734 
	C516.944153,247.668976 516.499512,247.821869 516.271240,247.765518 
z"/>
<path fill="#0D6486" opacity="1.000000" stroke="none" 
	d="
M179.943573,255.647369 
	C176.903854,256.228821 173.806473,256.459503 170.352722,256.845703 
	C163.302750,256.668518 156.612366,256.206543 149.914642,256.039398 
	C143.249939,255.873062 136.577850,256.002838 129.455719,256.001984 
	C126.079613,254.666519 123.241409,253.077469 120.210083,252.068863 
	C117.196594,251.066177 112.737717,252.236465 113.543152,246.147964 
	C108.872093,245.425476 104.178871,244.750549 99.511169,243.930435 
	C98.673805,243.783295 97.941765,243.036728 97.161087,242.566925 
	C97.704964,241.699646 98.161293,240.759155 98.812012,239.981277 
	C99.957474,238.612000 101.221695,237.342072 102.963615,235.460983 
	C103.158783,235.647949 103.870438,236.862122 104.864822,237.173569 
	C107.064079,237.862350 110.800789,239.167984 111.444412,238.329391 
	C114.055481,234.927246 116.893593,236.907639 119.584305,237.130768 
	C127.924286,237.822357 136.249176,238.695938 144.825104,239.210419 
	C145.500031,238.941666 145.929794,238.961349 146.682129,239.006195 
	C148.887421,239.502151 150.770111,239.972946 152.880554,240.158920 
	C154.801514,239.919418 156.494751,239.964752 158.615845,240.045959 
	C160.485519,240.379990 161.927338,240.678146 163.771484,240.947815 
	C169.242401,241.092621 174.310959,241.265915 179.712799,241.681732 
	C175.807098,242.616714 171.522491,243.115997 167.352554,244.100845 
	C165.780197,244.472214 164.473297,245.967422 163.045380,246.950317 
	C164.187805,248.297653 165.154648,249.879013 166.532425,250.912628 
	C167.501144,251.639389 169.326675,252.259811 170.256775,251.826630 
	C174.777817,249.720856 177.169724,252.817795 179.943573,255.647369 
z"/>
<path fill="#0C647A" opacity="1.000000" stroke="none" 
	d="
M133.981262,268.949829 
	C117.967537,268.969940 101.953812,268.990082 85.472031,268.995911 
	C82.836342,266.441650 80.934906,263.587799 78.421143,261.455933 
	C76.207176,259.578339 73.308800,258.507721 70.354500,257.040375 
	C73.544563,256.003235 77.075691,254.937515 80.651283,254.051132 
	C81.742935,253.780502 82.956818,254.002945 84.558578,253.998871 
	C97.806473,254.468140 110.610497,254.938110 123.708389,255.705505 
	C122.535927,260.552643 123.425735,262.322052 127.800407,262.919830 
	C130.354065,263.268768 132.963608,263.233765 135.549789,263.313416 
	C138.822617,263.414185 139.199127,265.538116 138.972916,268.499664 
	C138.528732,268.906097 138.100571,268.921417 137.285583,268.605225 
	C135.926270,268.499054 134.953766,268.724457 133.981262,268.949829 
z"/>
<path fill="#FAFAFA" opacity="1.000000" stroke="none" 
	d="
M272.023621,169.238358 
	C277.355530,185.765961 267.184814,195.397141 247.888367,191.944275 
	C247.888367,189.600677 247.888382,187.149307 247.888382,184.697952 
	C247.888382,176.744827 247.888367,168.791702 247.888367,160.958099 
	C259.943542,158.514633 267.173065,160.985275 272.023621,169.238358 
z"/>
<path fill="#0D6486" opacity="1.000000" stroke="none" 
	d="
M199.078796,243.163284 
	C199.158051,242.991821 199.327927,242.988419 199.752472,242.996887 
	C199.727890,243.116287 199.448654,243.223816 199.078796,243.163284 
z"/>
<path fill="#2D838A" opacity="1.000000" stroke="none" 
	d="
M366.195801,250.253479 
	C366.777496,249.668274 367.557343,249.338684 368.677673,249.015625 
	C368.143463,249.517807 367.268707,250.013443 366.195801,250.253479 
z"/>
<path fill="#127794" opacity="1.000000" stroke="none" 
	d="
M353.000549,249.627960 
	C331.983856,251.001404 310.967712,252.010574 289.486664,253.025909 
	C282.640228,253.355057 276.258667,253.678024 269.436737,253.999878 
	C268.675293,248.209900 273.361328,248.888367 276.790253,248.026901 
	C278.981354,247.476425 281.224182,247.131851 283.682556,246.421875 
	C284.756134,246.118530 285.590973,246.088257 286.848938,246.072189 
	C292.886719,246.387772 298.501434,246.689163 304.590668,246.980713 
	C320.731262,246.992188 336.397308,247.013504 352.531708,247.059448 
	C353.000397,247.810608 353.000732,248.537155 353.000549,249.627960 
z"/>
<path fill="#0D688B" opacity="1.000000" stroke="none" 
	d="
M240.908096,254.600525 
	C235.975891,254.998688 230.953751,255.001053 225.464417,255.002914 
	C225.175278,254.543579 225.362930,253.680618 225.529999,253.684586 
	C230.627304,253.805603 235.722580,254.011780 240.908096,254.600525 
z"/>
<path fill="#408A8B" opacity="1.000000" stroke="none" 
	d="
M388.934204,256.641357 
	C388.558502,257.003174 388.115814,257.005157 387.341248,257.008423 
	C386.149933,256.805359 385.290466,256.600952 384.431000,256.396545 
	C384.527954,255.933441 384.624908,255.470352 384.721863,255.007263 
	C386.103638,255.431992 387.485443,255.856735 388.934204,256.641357 
z"/>
<path fill="#176E82" opacity="1.000000" stroke="none" 
	d="
M134.362122,268.966583 
	C134.953766,268.724457 135.926270,268.499054 136.963867,268.596191 
	C136.266968,268.940216 135.504959,268.961761 134.362122,268.966583 
z"/>
</svg>